<svg xmlns="http://www.w3.org/2000/svg" xmlns:xlink="http://www.w3.org/1999/xlink" width="500" zoomAndPan="magnify" viewBox="0 0 375 374.999991" height="500" preserveAspectRatio="xMidYMid meet" version="1.0"><defs><g/><clipPath id="2f94bb7b30"><path d="M 176 198.335938 L 251.484375 198.335938 L 251.484375 215.503906 L 176 215.503906 Z M 176 198.335938 " clip-rule="nonzero"/></clipPath><clipPath id="a9639713f2"><path d="M 101.484375 117.085938 L 226.894531 117.085938 L 226.894531 211.707031 L 101.484375 211.707031 Z M 101.484375 117.085938 " clip-rule="nonzero"/></clipPath><clipPath id="5b8b3b3924"><path d="M 187 71 L 189 71 L 189 78 L 187 78 Z M 187 71 " clip-rule="nonzero"/></clipPath><clipPath id="69ae06043c"><path d="M 223.296875 34.320312 L 329.363281 140.386719 L 293.300781 176.449219 L 187.234375 70.382812 Z M 223.296875 34.320312 " clip-rule="nonzero"/></clipPath><clipPath id="b506ee99d7"><path d="M 190 66 L 308 66 L 308 164 L 190 164 Z M 190 66 " clip-rule="nonzero"/></clipPath><clipPath id="7ba135b828"><path d="M 223.296875 34.320312 L 329.363281 140.386719 L 293.300781 176.449219 L 187.234375 70.382812 Z M 223.296875 34.320312 " clip-rule="nonzero"/></clipPath><clipPath id="a36122cc18"><path d="M 223.296875 34.320312 L 329.363281 140.386719 L 293.300781 176.449219 L 187.234375 70.382812 Z M 223.296875 34.320312 " clip-rule="nonzero"/></clipPath><clipPath id="5a87c48d8d"><path d="M 294 175 L 300 175 L 300 178 L 294 178 Z M 294 175 " clip-rule="nonzero"/></clipPath><clipPath id="c2c0e41458"><path d="M 337.5 211.980469 L 231.433594 318.046875 L 195.371094 281.984375 L 301.4375 175.917969 Z M 337.5 211.980469 " clip-rule="nonzero"/></clipPath><clipPath id="ead7303a00"><path d="M 208 179 L 306 179 L 306 296 L 208 296 Z M 208 179 " clip-rule="nonzero"/></clipPath><clipPath id="a1bf509898"><path d="M 337.5 211.980469 L 231.433594 318.046875 L 195.371094 281.984375 L 301.4375 175.917969 Z M 337.5 211.980469 " clip-rule="nonzero"/></clipPath><clipPath id="58ee164745"><path d="M 337.5 211.980469 L 231.433594 318.046875 L 195.371094 281.984375 L 301.4375 175.917969 Z M 337.5 211.980469 " clip-rule="nonzero"/></clipPath><clipPath id="5d3c4f2927"><path d="M 175 286 L 177 286 L 177 292 L 175 292 Z M 175 286 " clip-rule="nonzero"/></clipPath><clipPath id="d4cb5a68c8"><path d="M 140.6875 329.363281 L 34.621094 223.296875 L 70.683594 187.234375 L 176.75 293.300781 Z M 140.6875 329.363281 " clip-rule="nonzero"/></clipPath><clipPath id="241896faaa"><path d="M 56 200 L 174 200 L 174 297 L 56 297 Z M 56 200 " clip-rule="nonzero"/></clipPath><clipPath id="2287c94353"><path d="M 140.6875 329.363281 L 34.621094 223.296875 L 70.683594 187.234375 L 176.75 293.300781 Z M 140.6875 329.363281 " clip-rule="nonzero"/></clipPath><clipPath id="67d7b610e6"><path d="M 140.6875 329.363281 L 34.621094 223.296875 L 70.683594 187.234375 L 176.75 293.300781 Z M 140.6875 329.363281 " clip-rule="nonzero"/></clipPath><clipPath id="760fc0fecb"><path d="M 75 178 L 81 178 L 81 180 L 75 180 Z M 75 178 " clip-rule="nonzero"/></clipPath><clipPath id="cde5fa9977"><path d="M 37.5 143.566406 L 143.566406 37.5 L 179.628906 73.5625 L 73.5625 179.628906 Z M 37.5 143.566406 " clip-rule="nonzero"/></clipPath><clipPath id="fd4acba498"><path d="M 69 59 L 167 59 L 167 177 L 69 177 Z M 69 59 " clip-rule="nonzero"/></clipPath><clipPath id="3b284a9470"><path d="M 37.5 143.566406 L 143.566406 37.5 L 179.628906 73.5625 L 73.5625 179.628906 Z M 37.5 143.566406 " clip-rule="nonzero"/></clipPath><clipPath id="f9f9d7bef6"><path d="M 37.5 143.566406 L 143.566406 37.5 L 179.628906 73.5625 L 73.5625 179.628906 Z M 37.5 143.566406 " clip-rule="nonzero"/></clipPath></defs><g clip-path="url(#2f94bb7b30)"><path fill="#869ba6" d="M 176.140625 210.417969 C 176.140625 213.226562 178.523438 215.503906 181.457031 215.503906 L 246.167969 215.503906 C 249.101562 215.503906 251.484375 213.226562 251.484375 210.417969 C 251.484375 207.734375 249.308594 205.535156 246.550781 205.351562 C 246.566406 205.238281 246.585938 205.128906 246.585938 205.011719 L 246.585938 201.15625 C 246.585938 199.800781 245.441406 198.710938 244.027344 198.710938 L 183.597656 198.710938 C 182.183594 198.710938 181.039062 199.800781 181.039062 201.15625 L 181.039062 205.011719 C 181.039062 205.128906 181.058594 205.238281 181.074219 205.351562 C 178.316406 205.535156 176.140625 207.734375 176.140625 210.417969 " fill-opacity="1" fill-rule="nonzero"/></g><g clip-path="url(#a9639713f2)"><path fill="#869ba6" d="M 198.179688 127.625 L 163.742188 147.960938 C 161.820312 149.039062 159.347656 148.429688 158.214844 146.59375 L 156.144531 143.242188 C 155.015625 141.40625 155.652344 139.042969 157.570312 137.957031 L 192.011719 117.621094 C 193.925781 116.535156 196.402344 117.144531 197.535156 118.980469 L 199.601562 122.335938 C 200.734375 124.171875 200.097656 126.539062 198.179688 127.625 Z M 224.65625 170.277344 L 190.21875 190.613281 C 188.300781 191.699219 185.828125 191.089844 184.695312 189.253906 L 182.625 185.902344 C 181.492188 184.066406 182.128906 181.699219 184.050781 180.613281 L 218.484375 160.277344 C 220.40625 159.191406 222.878906 159.804688 224.011719 161.640625 L 226.082031 164.996094 C 227.210938 166.832031 226.574219 169.195312 224.65625 170.277344 Z M 103.0625 198.238281 C 105.15625 194.644531 108.347656 192.148438 112.144531 190.347656 C 122.371094 185.503906 162.617188 163.355469 166.738281 162.785156 C 167.472656 162.683594 167.894531 162.828125 168.28125 163.472656 C 169.570312 165.640625 170.90625 167.785156 172.285156 169.898438 C 172.699219 170.539062 172.628906 170.964844 172.183594 171.53125 C 170.082031 174.214844 132.589844 200.949219 122.664062 207.578125 C 119.886719 209.433594 116.839844 210.675781 113.476562 211.257812 C 112.414062 211.285156 111.339844 211.367188 110.273438 211.324219 C 106.03125 211.15625 102.914062 209.101562 101.828125 205.675781 C 100.988281 203.035156 101.710938 200.5625 103.0625 198.238281 Z M 182.542969 177.105469 C 193.058594 171.144531 205.53125 163.179688 216.039062 157.214844 C 210.574219 148.410156 205.207031 139.769531 199.746094 130.976562 C 189.277344 136.917969 176.8125 144.890625 166.257812 150.882812 C 171.691406 159.625 177.085938 168.320312 182.542969 177.105469 " fill-opacity="1" fill-rule="nonzero"/></g><g clip-path="url(#5b8b3b3924)"><g clip-path="url(#69ae06043c)"><g fill="#000000" fill-opacity="1"><g transform="translate(182.461855, 75.15532)"><g><path d="M 4.203125 0.703125 C 2.992188 1.910156 2.007812 2.132812 1.25 1.375 C 0.882812 1.007812 0.765625 0.578125 0.890625 0.078125 C 1.015625 -0.421875 1.367188 -0.960938 1.953125 -1.546875 C 2.523438 -2.117188 3.054688 -2.460938 3.546875 -2.578125 C 4.046875 -2.703125 4.484375 -2.578125 4.859375 -2.203125 C 5.222656 -1.835938 5.347656 -1.40625 5.234375 -0.90625 C 5.128906 -0.414062 4.785156 0.117188 4.203125 0.703125 Z M 3.734375 0.234375 C 4.285156 -0.316406 4.628906 -0.769531 4.765625 -1.125 C 4.898438 -1.476562 4.851562 -1.769531 4.625 -2 C 4.394531 -2.226562 4.113281 -2.273438 3.78125 -2.140625 C 3.457031 -2.015625 3.003906 -1.660156 2.421875 -1.078125 C 1.835938 -0.492188 1.476562 -0.03125 1.34375 0.3125 C 1.207031 0.65625 1.25 0.9375 1.46875 1.15625 C 1.695312 1.382812 1.988281 1.425781 2.34375 1.28125 C 2.707031 1.144531 3.171875 0.796875 3.734375 0.234375 Z M 3.734375 0.234375 "/></g></g></g></g></g><g clip-path="url(#b506ee99d7)"><g clip-path="url(#7ba135b828)"><g clip-path="url(#a36122cc18)"><path fill="#800080" d="M 306.75 162.417969 C 306.445312 162.394531 305.996094 162.347656 305.410156 162.289062 C 305.121094 162.257812 304.796875 162.21875 304.4375 162.171875 C 304.261719 162.148438 304.074219 162.125 303.878906 162.101562 C 303.6875 162.070312 303.484375 162.039062 303.277344 162.007812 C 303.066406 161.976562 302.851562 161.945312 302.625 161.910156 C 302.402344 161.875 302.171875 161.84375 301.933594 161.796875 C 301.460938 161.710938 300.957031 161.625 300.425781 161.523438 C 298.3125 161.101562 295.785156 160.460938 293.023438 159.46875 C 291.644531 158.957031 290.207031 158.367188 288.734375 157.667969 C 287.265625 156.957031 285.765625 156.140625 284.253906 155.207031 C 281.234375 153.34375 278.183594 150.996094 275.234375 148.199219 C 272.28125 145.40625 269.417969 142.175781 266.664062 138.628906 C 263.90625 135.082031 261.265625 131.214844 258.679688 127.183594 C 256.3125 123.492188 254 119.652344 251.691406 115.769531 L 255.121094 112.339844 C 261.503906 116.902344 270.488281 116.292969 276.253906 110.527344 C 282.664062 104.113281 282.703125 93.71875 276.335938 87.355469 C 273.289062 84.304688 269.226562 82.617188 264.902344 82.597656 C 260.578125 82.578125 256.480469 84.226562 253.367188 87.242188 C 252.300781 88.273438 252.265625 89.964844 253.289062 91.023438 C 254.300781 92.074219 256.003906 92.105469 257.070312 91.074219 C 261.386719 86.902344 268.324219 86.9375 272.539062 91.152344 C 276.828125 95.4375 276.800781 102.4375 272.484375 106.757812 C 268.164062 111.074219 261.164062 111.101562 256.871094 106.808594 C 255.828125 105.765625 254.140625 105.777344 253.089844 106.824219 C 253.054688 106.863281 253.019531 106.902344 252.984375 106.941406 C 252.96875 106.957031 252.953125 106.96875 252.9375 106.984375 L 248.882812 111.039062 L 248.882812 111.042969 C 247.070312 107.992188 245.238281 104.9375 243.355469 101.933594 C 240.722656 97.734375 238 93.628906 235.035156 89.800781 C 232.082031 85.984375 228.925781 82.480469 225.621094 79.460938 C 222.320312 76.4375 218.855469 73.914062 215.429688 71.984375 C 215.21875 71.863281 215.003906 71.746094 214.789062 71.628906 C 214.574219 71.511719 214.371094 71.390625 214.152344 71.285156 C 213.722656 71.066406 213.296875 70.851562 212.875 70.640625 C 212.023438 70.246094 211.195312 69.851562 210.359375 69.527344 C 210.152344 69.445312 209.945312 69.359375 209.742188 69.277344 C 209.539062 69.191406 209.328125 69.125 209.125 69.046875 C 208.714844 68.898438 208.3125 68.753906 207.910156 68.617188 C 207.101562 68.367188 206.324219 68.105469 205.550781 67.917969 C 204.019531 67.496094 202.554688 67.246094 201.210938 67.035156 C 200.871094 66.996094 200.539062 66.957031 200.214844 66.921875 C 200.050781 66.902344 199.890625 66.882812 199.734375 66.867188 C 199.652344 66.859375 199.574219 66.847656 199.496094 66.839844 C 199.417969 66.835938 199.339844 66.828125 199.261719 66.824219 C 198.953125 66.804688 198.648438 66.785156 198.351562 66.765625 C 198.203125 66.757812 198.058594 66.746094 197.914062 66.738281 C 197.84375 66.734375 197.769531 66.730469 197.699219 66.726562 C 197.628906 66.726562 197.558594 66.722656 197.488281 66.722656 C 196.925781 66.714844 196.398438 66.707031 195.898438 66.699219 C 195.398438 66.71875 194.933594 66.738281 194.5 66.753906 C 194.390625 66.757812 194.285156 66.761719 194.183594 66.765625 C 194.078125 66.773438 193.976562 66.78125 193.875 66.789062 C 193.675781 66.808594 193.484375 66.824219 193.300781 66.839844 C 192.933594 66.875 192.605469 66.90625 192.308594 66.933594 C 191.136719 67.101562 190.511719 67.203125 190.511719 67.203125 C 190.511719 67.203125 191.140625 67.289062 192.308594 67.429688 C 192.597656 67.480469 192.921875 67.53125 193.273438 67.589844 C 193.449219 67.621094 193.632812 67.648438 193.828125 67.679688 C 193.921875 67.695312 194.019531 67.710938 194.121094 67.730469 C 194.21875 67.75 194.320312 67.769531 194.421875 67.792969 C 194.835938 67.875 195.277344 67.964844 195.75 68.0625 C 196.214844 68.175781 196.710938 68.292969 197.234375 68.421875 C 197.296875 68.4375 197.363281 68.453125 197.429688 68.46875 C 197.496094 68.488281 197.5625 68.507812 197.628906 68.527344 C 197.757812 68.566406 197.894531 68.605469 198.027344 68.644531 C 198.296875 68.722656 198.574219 68.800781 198.859375 68.882812 C 198.929688 68.902344 199 68.921875 199.070312 68.945312 C 199.140625 68.96875 199.214844 68.992188 199.285156 69.015625 C 199.429688 69.0625 199.574219 69.113281 199.71875 69.160156 C 200.011719 69.257812 200.308594 69.355469 200.609375 69.457031 C 200.910156 69.570312 201.214844 69.683594 201.527344 69.800781 C 201.835938 69.921875 202.152344 70.03125 202.46875 70.171875 C 202.78125 70.304688 203.105469 70.441406 203.429688 70.578125 C 203.59375 70.644531 203.753906 70.722656 203.917969 70.800781 C 204.082031 70.875 204.246094 70.953125 204.410156 71.03125 C 205.078125 71.328125 205.738281 71.691406 206.425781 72.039062 C 206.765625 72.226562 207.101562 72.425781 207.449219 72.617188 C 207.621094 72.71875 207.796875 72.808594 207.96875 72.914062 C 208.140625 73.019531 208.3125 73.128906 208.484375 73.234375 C 209.183594 73.648438 209.875 74.117188 210.582031 74.589844 C 210.929688 74.835938 211.277344 75.085938 211.632812 75.339844 C 211.8125 75.460938 211.984375 75.597656 212.160156 75.730469 C 212.335938 75.863281 212.511719 75.996094 212.6875 76.132812 C 215.5 78.304688 218.3125 80.949219 221.023438 84.011719 C 223.734375 87.074219 226.351562 90.535156 228.859375 94.285156 C 229.175781 94.75 229.480469 95.230469 229.792969 95.703125 C 230.105469 96.179688 230.40625 96.664062 230.71875 97.148438 C 231.03125 97.640625 231.339844 98.136719 231.652344 98.632812 C 231.953125 99.125 232.257812 99.617188 232.558594 100.113281 C 232.863281 100.617188 233.171875 101.121094 233.476562 101.628906 C 233.78125 102.136719 234.085938 102.648438 234.386719 103.164062 C 234.996094 104.191406 235.605469 105.230469 236.210938 106.28125 C 238.648438 110.472656 241.097656 114.796875 243.65625 119.105469 C 246.214844 123.414062 248.875 127.710938 251.710938 131.839844 C 254.546875 135.964844 257.5625 139.925781 260.789062 143.542969 C 264.015625 147.160156 267.453125 150.425781 271.035156 153.15625 C 272.820312 154.523438 274.644531 155.753906 276.472656 156.835938 C 278.296875 157.917969 280.132812 158.851562 281.9375 159.636719 C 283.746094 160.417969 285.523438 161.054688 287.238281 161.558594 C 287.667969 161.675781 288.09375 161.792969 288.511719 161.90625 C 288.722656 161.96875 288.933594 162.015625 289.140625 162.0625 C 289.347656 162.113281 289.554688 162.160156 289.761719 162.207031 C 289.96875 162.253906 290.171875 162.300781 290.375 162.347656 C 290.578125 162.386719 290.777344 162.425781 290.980469 162.464844 C 291.179688 162.503906 291.378906 162.542969 291.578125 162.578125 C 291.777344 162.617188 291.96875 162.65625 292.167969 162.683594 C 295.292969 163.191406 298.035156 163.3125 300.273438 163.242188 C 300.832031 163.222656 301.359375 163.195312 301.855469 163.171875 C 302.101562 163.164062 302.34375 163.136719 302.574219 163.117188 C 302.804688 163.09375 303.027344 163.074219 303.242188 163.054688 C 304.105469 162.988281 304.832031 162.875 305.421875 162.789062 C 306.007812 162.699219 306.453125 162.609375 306.753906 162.554688 C 307.054688 162.492188 307.210938 162.460938 307.210938 162.460938 C 307.210938 162.460938 307.054688 162.445312 306.75 162.417969 " fill-opacity="1" fill-rule="nonzero"/></g></g></g><g clip-path="url(#5a87c48d8d)"><g clip-path="url(#c2c0e41458)"><g fill="#000000" fill-opacity="1"><g transform="translate(296.664568, 171.145071)"><g><path d="M -0.703125 4.203125 C -1.910156 2.992188 -2.132812 2.007812 -1.375 1.25 C -1.007812 0.882812 -0.578125 0.765625 -0.078125 0.890625 C 0.421875 1.015625 0.960938 1.367188 1.546875 1.953125 C 2.117188 2.523438 2.460938 3.054688 2.578125 3.546875 C 2.703125 4.046875 2.578125 4.484375 2.203125 4.859375 C 1.835938 5.222656 1.40625 5.347656 0.90625 5.234375 C 0.414062 5.128906 -0.117188 4.785156 -0.703125 4.203125 Z M -0.234375 3.734375 C 0.316406 4.285156 0.769531 4.628906 1.125 4.765625 C 1.476562 4.898438 1.769531 4.851562 2 4.625 C 2.226562 4.394531 2.273438 4.113281 2.140625 3.78125 C 2.015625 3.457031 1.660156 3.003906 1.078125 2.421875 C 0.492188 1.835938 0.03125 1.476562 -0.3125 1.34375 C -0.65625 1.207031 -0.9375 1.25 -1.15625 1.46875 C -1.382812 1.695312 -1.425781 1.988281 -1.28125 2.34375 C -1.144531 2.707031 -0.796875 3.171875 -0.234375 3.734375 Z M -0.234375 3.734375 "/></g></g></g></g></g><g clip-path="url(#ead7303a00)"><g clip-path="url(#a1bf509898)"><g clip-path="url(#58ee164745)"><path fill="#800080" d="M 209.402344 295.433594 C 209.425781 295.128906 209.472656 294.679688 209.53125 294.09375 C 209.5625 293.800781 209.601562 293.476562 209.648438 293.121094 C 209.671875 292.945312 209.695312 292.757812 209.71875 292.5625 C 209.75 292.371094 209.777344 292.167969 209.8125 291.960938 C 209.84375 291.75 209.875 291.535156 209.910156 291.308594 C 209.945312 291.085938 209.976562 290.855469 210.023438 290.617188 C 210.109375 290.140625 210.195312 289.640625 210.296875 289.109375 C 210.71875 286.996094 211.359375 284.46875 212.351562 281.707031 C 212.863281 280.328125 213.453125 278.890625 214.152344 277.417969 C 214.863281 275.949219 215.679688 274.449219 216.613281 272.9375 C 218.476562 269.914062 220.824219 266.867188 223.617188 263.917969 C 226.410156 260.960938 229.644531 258.097656 233.191406 255.34375 C 236.734375 252.589844 240.605469 249.949219 244.636719 247.359375 C 248.324219 244.996094 252.167969 242.683594 256.050781 240.375 L 259.480469 243.804688 C 254.917969 250.1875 255.527344 259.171875 261.292969 264.9375 C 267.703125 271.347656 278.101562 271.386719 284.464844 265.019531 C 287.515625 261.972656 289.203125 257.910156 289.222656 253.582031 C 289.242188 249.261719 287.589844 245.164062 284.578125 242.050781 C 283.546875 240.984375 281.851562 240.949219 280.792969 241.972656 C 279.746094 242.984375 279.714844 244.6875 280.746094 245.753906 C 284.917969 250.070312 284.882812 257.007812 280.667969 261.222656 C 276.382812 265.511719 269.378906 265.484375 265.0625 261.164062 C 260.746094 256.847656 260.71875 249.847656 265.011719 245.554688 C 266.050781 244.511719 266.042969 242.820312 264.992188 241.773438 C 264.957031 241.734375 264.917969 241.703125 264.878906 241.667969 C 264.863281 241.652344 264.851562 241.636719 264.835938 241.621094 L 260.78125 237.566406 L 260.777344 237.566406 C 263.828125 235.75 266.882812 233.921875 269.886719 232.039062 C 274.085938 229.40625 278.191406 226.683594 282.019531 223.71875 C 285.835938 220.765625 289.339844 217.609375 292.359375 214.304688 C 295.382812 211.003906 297.90625 207.539062 299.835938 204.113281 C 299.957031 203.898438 300.074219 203.6875 300.191406 203.472656 C 300.308594 203.257812 300.429688 203.050781 300.535156 202.835938 C 300.753906 202.40625 300.964844 201.980469 301.179688 201.558594 C 301.574219 200.707031 301.96875 199.878906 302.292969 199.042969 C 302.375 198.835938 302.460938 198.628906 302.542969 198.425781 C 302.628906 198.222656 302.695312 198.011719 302.773438 197.808594 C 302.921875 197.398438 303.066406 196.996094 303.203125 196.59375 C 303.453125 195.785156 303.714844 195.007812 303.898438 194.234375 C 304.324219 192.703125 304.574219 191.238281 304.785156 189.894531 C 304.824219 189.554688 304.863281 189.222656 304.898438 188.898438 C 304.917969 188.734375 304.9375 188.574219 304.953125 188.417969 C 304.960938 188.335938 304.96875 188.257812 304.980469 188.179688 C 304.984375 188.101562 304.992188 188.023438 304.996094 187.945312 C 305.015625 187.636719 305.035156 187.332031 305.054688 187.035156 C 305.0625 186.886719 305.074219 186.742188 305.082031 186.597656 C 305.085938 186.527344 305.089844 186.453125 305.09375 186.382812 C 305.09375 186.3125 305.097656 186.242188 305.097656 186.171875 C 305.105469 185.609375 305.113281 185.082031 305.121094 184.582031 C 305.101562 184.082031 305.082031 183.617188 305.066406 183.183594 C 305.0625 183.074219 305.058594 182.96875 305.054688 182.863281 C 305.046875 182.761719 305.039062 182.660156 305.027344 182.558594 C 305.011719 182.359375 304.996094 182.167969 304.980469 181.984375 C 304.945312 181.617188 304.914062 181.289062 304.886719 180.992188 C 304.71875 179.820312 304.617188 179.195312 304.617188 179.195312 C 304.617188 179.195312 304.53125 179.820312 304.386719 180.992188 C 304.339844 181.28125 304.289062 181.605469 304.230469 181.957031 C 304.199219 182.132812 304.171875 182.316406 304.140625 182.507812 C 304.125 182.605469 304.109375 182.703125 304.089844 182.800781 C 304.070312 182.902344 304.050781 183.003906 304.027344 183.105469 C 303.945312 183.519531 303.855469 183.960938 303.757812 184.433594 C 303.644531 184.898438 303.523438 185.394531 303.398438 185.917969 C 303.382812 185.980469 303.367188 186.046875 303.351562 186.113281 C 303.332031 186.179688 303.3125 186.242188 303.292969 186.3125 C 303.253906 186.441406 303.214844 186.574219 303.175781 186.710938 C 303.097656 186.980469 303.019531 187.257812 302.9375 187.542969 C 302.917969 187.613281 302.894531 187.683594 302.875 187.753906 C 302.851562 187.824219 302.828125 187.898438 302.804688 187.96875 C 302.753906 188.113281 302.707031 188.257812 302.660156 188.402344 C 302.5625 188.691406 302.464844 188.988281 302.363281 189.292969 C 302.25 189.59375 302.136719 189.898438 302.015625 190.207031 C 301.898438 190.519531 301.789062 190.835938 301.648438 191.148438 C 301.515625 191.464844 301.378906 191.785156 301.238281 192.113281 C 301.175781 192.277344 301.097656 192.4375 301.019531 192.601562 C 300.945312 192.765625 300.867188 192.929688 300.789062 193.09375 C 300.492188 193.757812 300.128906 194.421875 299.777344 195.109375 C 299.59375 195.449219 299.394531 195.785156 299.203125 196.132812 C 299.101562 196.304688 299.011719 196.480469 298.902344 196.652344 C 298.800781 196.824219 298.691406 196.996094 298.585938 197.167969 C 298.171875 197.867188 297.699219 198.558594 297.230469 199.265625 C 296.984375 199.609375 296.734375 199.960938 296.480469 200.316406 C 296.359375 200.496094 296.21875 200.667969 296.089844 200.84375 C 295.957031 201.019531 295.824219 201.195312 295.6875 201.371094 C 293.515625 204.183594 290.871094 206.996094 287.808594 209.707031 C 284.746094 212.417969 281.285156 215.035156 277.535156 217.539062 C 277.070312 217.859375 276.589844 218.164062 276.117188 218.476562 C 275.640625 218.789062 275.152344 219.089844 274.671875 219.402344 C 274.179688 219.714844 273.683594 220.023438 273.1875 220.335938 C 272.695312 220.636719 272.203125 220.941406 271.707031 221.242188 C 271.203125 221.546875 270.699219 221.855469 270.191406 222.15625 C 269.683594 222.464844 269.171875 222.765625 268.65625 223.070312 C 267.628906 223.679688 266.589844 224.289062 265.539062 224.894531 C 261.347656 227.332031 257.023438 229.78125 252.714844 232.339844 C 248.40625 234.898438 244.109375 237.554688 239.980469 240.394531 C 235.851562 243.230469 231.894531 246.246094 228.277344 249.472656 C 224.660156 252.699219 221.394531 256.136719 218.664062 259.714844 C 217.296875 261.503906 216.066406 263.324219 214.984375 265.15625 C 213.902344 266.980469 212.96875 268.816406 212.183594 270.621094 C 211.402344 272.429688 210.765625 274.207031 210.261719 275.921875 C 210.144531 276.351562 210.027344 276.777344 209.910156 277.195312 C 209.851562 277.402344 209.804688 277.613281 209.757812 277.824219 C 209.707031 278.03125 209.660156 278.238281 209.613281 278.445312 C 209.566406 278.652344 209.519531 278.855469 209.472656 279.054688 C 209.433594 279.261719 209.394531 279.460938 209.355469 279.664062 C 209.316406 279.863281 209.277344 280.0625 209.242188 280.261719 C 209.203125 280.460938 209.164062 280.652344 209.136719 280.851562 C 208.628906 283.976562 208.507812 286.71875 208.574219 288.957031 C 208.597656 289.515625 208.625 290.042969 208.648438 290.539062 C 208.65625 290.785156 208.683594 291.027344 208.703125 291.257812 C 208.726562 291.488281 208.746094 291.710938 208.765625 291.925781 C 208.832031 292.789062 208.945312 293.515625 209.03125 294.101562 C 209.121094 294.691406 209.210938 295.136719 209.265625 295.4375 C 209.328125 295.738281 209.359375 295.894531 209.359375 295.894531 C 209.359375 295.894531 209.375 295.734375 209.402344 295.433594 " fill-opacity="1" fill-rule="nonzero"/></g></g></g><g clip-path="url(#5d3c4f2927)"><g clip-path="url(#d4cb5a68c8)"><g fill="#000000" fill-opacity="1"><g transform="translate(181.522591, 288.527856)"><g><path d="M -4.203125 -0.703125 C -2.992188 -1.910156 -2.007812 -2.132812 -1.25 -1.375 C -0.882812 -1.007812 -0.765625 -0.578125 -0.890625 -0.078125 C -1.015625 0.421875 -1.367188 0.960938 -1.953125 1.546875 C -2.523438 2.117188 -3.054688 2.460938 -3.546875 2.578125 C -4.046875 2.703125 -4.484375 2.578125 -4.859375 2.203125 C -5.222656 1.835938 -5.347656 1.40625 -5.234375 0.90625 C -5.128906 0.414062 -4.785156 -0.117188 -4.203125 -0.703125 Z M -3.734375 -0.234375 C -4.285156 0.316406 -4.628906 0.769531 -4.765625 1.125 C -4.898438 1.476562 -4.851562 1.769531 -4.625 2 C -4.394531 2.226562 -4.113281 2.273438 -3.78125 2.140625 C -3.457031 2.015625 -3.003906 1.660156 -2.421875 1.078125 C -1.835938 0.492188 -1.476562 0.03125 -1.34375 -0.3125 C -1.207031 -0.65625 -1.25 -0.9375 -1.46875 -1.15625 C -1.695312 -1.382812 -1.988281 -1.425781 -2.34375 -1.28125 C -2.707031 -1.144531 -3.171875 -0.796875 -3.734375 -0.234375 Z M -3.734375 -0.234375 "/></g></g></g></g></g><g clip-path="url(#241896faaa)"><g clip-path="url(#2287c94353)"><g clip-path="url(#67d7b610e6)"><path fill="#800080" d="M 57.234375 201.265625 C 57.539062 201.289062 57.988281 201.335938 58.574219 201.394531 C 58.863281 201.425781 59.1875 201.464844 59.546875 201.511719 C 59.722656 201.535156 59.910156 201.558594 60.105469 201.582031 C 60.296875 201.613281 60.5 201.640625 60.707031 201.675781 C 60.917969 201.707031 61.132812 201.738281 61.359375 201.773438 C 61.582031 201.808594 61.8125 201.839844 62.050781 201.886719 C 62.527344 201.972656 63.027344 202.058594 63.558594 202.160156 C 65.671875 202.582031 68.199219 203.222656 70.960938 204.214844 C 72.339844 204.726562 73.777344 205.316406 75.25 206.015625 C 76.71875 206.726562 78.21875 207.542969 79.730469 208.476562 C 82.75 210.339844 85.800781 212.6875 88.75 215.480469 C 91.703125 218.273438 94.566406 221.507812 97.320312 225.054688 C 100.078125 228.597656 102.71875 232.46875 105.304688 236.5 C 107.671875 240.1875 109.984375 244.03125 112.292969 247.914062 L 108.863281 251.34375 C 102.480469 246.78125 93.496094 247.390625 87.730469 253.15625 C 81.320312 259.566406 81.28125 269.964844 87.648438 276.328125 C 90.695312 279.378906 94.757812 281.066406 99.082031 281.085938 C 103.40625 281.105469 107.503906 279.453125 110.617188 276.441406 C 111.683594 275.410156 111.71875 273.714844 110.695312 272.65625 C 109.683594 271.609375 107.980469 271.578125 106.914062 272.609375 C 102.597656 276.78125 95.660156 276.746094 91.445312 272.53125 C 87.15625 268.246094 87.183594 261.242188 91.5 256.925781 C 95.820312 252.609375 102.820312 252.582031 107.113281 256.875 C 108.15625 257.914062 109.84375 257.90625 110.894531 256.855469 C 110.929688 256.820312 110.964844 256.78125 111 256.742188 C 111.015625 256.726562 111.03125 256.714844 111.046875 256.699219 L 115.101562 252.644531 L 115.101562 252.640625 C 116.914062 255.691406 118.746094 258.746094 120.628906 261.75 C 123.261719 265.949219 125.984375 270.054688 128.949219 273.882812 C 131.902344 277.699219 135.058594 281.203125 138.363281 284.222656 C 141.664062 287.246094 145.128906 289.769531 148.554688 291.699219 C 148.769531 291.820312 148.980469 291.9375 149.195312 292.054688 C 149.410156 292.171875 149.617188 292.292969 149.832031 292.398438 C 150.261719 292.617188 150.6875 292.828125 151.109375 293.042969 C 151.960938 293.4375 152.789062 293.832031 153.625 294.15625 C 153.832031 294.238281 154.039062 294.324219 154.242188 294.40625 C 154.445312 294.492188 154.65625 294.558594 154.859375 294.636719 C 155.269531 294.785156 155.671875 294.929688 156.074219 295.066406 C 156.882812 295.316406 157.660156 295.578125 158.433594 295.761719 C 159.964844 296.1875 161.429688 296.4375 162.773438 296.648438 C 163.113281 296.6875 163.445312 296.726562 163.769531 296.761719 C 163.933594 296.78125 164.09375 296.800781 164.25 296.816406 C 164.332031 296.824219 164.410156 296.832031 164.488281 296.84375 C 164.566406 296.847656 164.644531 296.855469 164.722656 296.859375 C 165.03125 296.878906 165.335938 296.898438 165.632812 296.917969 C 165.78125 296.925781 165.925781 296.9375 166.070312 296.945312 C 166.140625 296.949219 166.214844 296.953125 166.285156 296.957031 C 166.355469 296.957031 166.425781 296.960938 166.496094 296.960938 C 167.058594 296.96875 167.585938 296.976562 168.085938 296.984375 C 168.585938 296.964844 169.050781 296.945312 169.484375 296.929688 C 169.59375 296.925781 169.699219 296.921875 169.800781 296.917969 C 169.90625 296.910156 170.007812 296.902344 170.109375 296.890625 C 170.308594 296.875 170.5 296.859375 170.683594 296.84375 C 171.050781 296.808594 171.378906 296.777344 171.675781 296.75 C 172.847656 296.582031 173.472656 296.480469 173.472656 296.480469 C 173.472656 296.480469 172.847656 296.394531 171.675781 296.25 C 171.386719 296.203125 171.0625 296.152344 170.710938 296.09375 C 170.535156 296.0625 170.351562 296.035156 170.15625 296.003906 C 170.0625 295.988281 169.964844 295.972656 169.863281 295.953125 C 169.765625 295.933594 169.664062 295.914062 169.5625 295.890625 C 169.148438 295.808594 168.707031 295.71875 168.234375 295.621094 C 167.769531 295.507812 167.273438 295.386719 166.75 295.261719 C 166.6875 295.246094 166.621094 295.230469 166.554688 295.214844 C 166.488281 295.195312 166.425781 295.175781 166.355469 295.15625 C 166.226562 295.117188 166.09375 295.078125 165.957031 295.039062 C 165.6875 294.960938 165.410156 294.882812 165.125 294.800781 C 165.054688 294.78125 164.984375 294.757812 164.914062 294.738281 C 164.84375 294.714844 164.769531 294.691406 164.699219 294.667969 C 164.554688 294.617188 164.410156 294.570312 164.265625 294.523438 C 163.972656 294.425781 163.675781 294.328125 163.375 294.226562 C 163.074219 294.113281 162.769531 294 162.457031 293.878906 C 162.148438 293.761719 161.832031 293.652344 161.515625 293.511719 C 161.203125 293.378906 160.882812 293.242188 160.554688 293.101562 C 160.390625 293.039062 160.230469 292.960938 160.066406 292.882812 C 159.902344 292.808594 159.738281 292.730469 159.574219 292.652344 C 158.90625 292.355469 158.246094 291.992188 157.558594 291.640625 C 157.21875 291.457031 156.882812 291.257812 156.535156 291.066406 C 156.363281 290.964844 156.1875 290.875 156.015625 290.765625 C 155.84375 290.664062 155.671875 290.554688 155.5 290.449219 C 154.800781 290.035156 154.109375 289.566406 153.402344 289.09375 C 153.054688 288.847656 152.707031 288.597656 152.351562 288.34375 C 152.171875 288.222656 152 288.082031 151.824219 287.953125 C 151.648438 287.820312 151.472656 287.6875 151.296875 287.550781 C 148.484375 285.378906 145.671875 282.734375 142.960938 279.671875 C 140.25 276.609375 137.632812 273.148438 135.128906 269.398438 C 134.808594 268.933594 134.503906 268.453125 134.191406 267.980469 C 133.878906 267.503906 133.578125 267.015625 133.265625 266.535156 C 132.953125 266.042969 132.644531 265.546875 132.332031 265.050781 C 132.03125 264.558594 131.726562 264.066406 131.425781 263.570312 C 131.121094 263.066406 130.8125 262.5625 130.507812 262.054688 C 130.203125 261.546875 129.898438 261.035156 129.597656 260.519531 C 128.988281 259.492188 128.378906 258.453125 127.773438 257.402344 C 125.335938 253.210938 122.886719 248.886719 120.328125 244.578125 C 117.769531 240.269531 115.113281 235.972656 112.273438 231.84375 C 109.4375 227.714844 106.421875 223.757812 103.195312 220.140625 C 99.96875 216.523438 96.53125 213.257812 92.949219 210.527344 C 91.164062 209.160156 89.34375 207.929688 87.511719 206.847656 C 85.6875 205.765625 83.851562 204.832031 82.046875 204.046875 C 80.238281 203.265625 78.460938 202.628906 76.746094 202.125 C 76.316406 202.007812 75.890625 201.890625 75.472656 201.773438 C 75.261719 201.714844 75.054688 201.667969 74.84375 201.621094 C 74.636719 201.570312 74.429688 201.523438 74.222656 201.476562 C 74.015625 201.429688 73.8125 201.382812 73.609375 201.335938 C 73.40625 201.296875 73.207031 201.257812 73.003906 201.21875 C 72.804688 201.179688 72.605469 201.140625 72.40625 201.105469 C 72.207031 201.066406 72.015625 201.027344 71.816406 201 C 68.691406 200.492188 65.949219 200.371094 63.710938 200.4375 C 63.152344 200.460938 62.625 200.488281 62.128906 200.511719 C 61.882812 200.519531 61.640625 200.546875 61.410156 200.566406 C 61.179688 200.589844 60.957031 200.609375 60.742188 200.628906 C 59.878906 200.695312 59.152344 200.808594 58.5625 200.894531 C 57.976562 200.984375 57.53125 201.074219 57.230469 201.128906 C 56.929688 201.191406 56.773438 201.222656 56.773438 201.222656 C 56.773438 201.222656 56.929688 201.238281 57.234375 201.265625 " fill-opacity="1" fill-rule="nonzero"/></g></g></g><g clip-path="url(#760fc0fecb)"><g clip-path="url(#cde5fa9977)"><g fill="#000000" fill-opacity="1"><g transform="translate(78.335416, 184.401415)"><g><path d="M 0.703125 -4.203125 C 1.910156 -2.992188 2.132812 -2.007812 1.375 -1.25 C 1.007812 -0.882812 0.578125 -0.765625 0.078125 -0.890625 C -0.421875 -1.015625 -0.960938 -1.367188 -1.546875 -1.953125 C -2.117188 -2.523438 -2.460938 -3.054688 -2.578125 -3.546875 C -2.703125 -4.046875 -2.578125 -4.484375 -2.203125 -4.859375 C -1.835938 -5.222656 -1.40625 -5.347656 -0.90625 -5.234375 C -0.414062 -5.128906 0.117188 -4.785156 0.703125 -4.203125 Z M 0.234375 -3.734375 C -0.316406 -4.285156 -0.769531 -4.628906 -1.125 -4.765625 C -1.476562 -4.898438 -1.769531 -4.851562 -2 -4.625 C -2.226562 -4.394531 -2.273438 -4.113281 -2.140625 -3.78125 C -2.015625 -3.457031 -1.660156 -3.003906 -1.078125 -2.421875 C -0.492188 -1.835938 -0.03125 -1.476562 0.3125 -1.34375 C 0.65625 -1.207031 0.9375 -1.25 1.15625 -1.46875 C 1.382812 -1.695312 1.425781 -1.988281 1.28125 -2.34375 C 1.144531 -2.707031 0.796875 -3.171875 0.234375 -3.734375 Z M 0.234375 -3.734375 "/></g></g></g></g></g><g clip-path="url(#fd4acba498)"><g clip-path="url(#3b284a9470)"><g clip-path="url(#f9f9d7bef6)"><path fill="#800080" d="M 165.597656 60.113281 C 165.574219 60.417969 165.527344 60.867188 165.46875 61.453125 C 165.4375 61.742188 165.398438 62.066406 165.351562 62.425781 C 165.328125 62.601562 165.304688 62.789062 165.28125 62.984375 C 165.25 63.175781 165.222656 63.378906 165.1875 63.585938 C 165.15625 63.796875 165.125 64.011719 165.089844 64.238281 C 165.054688 64.460938 165.023438 64.691406 164.976562 64.929688 C 164.890625 65.402344 164.804688 65.90625 164.703125 66.4375 C 164.28125 68.550781 163.640625 71.078125 162.648438 73.839844 C 162.136719 75.21875 161.546875 76.65625 160.847656 78.128906 C 160.136719 79.597656 159.320312 81.097656 158.386719 82.609375 C 156.523438 85.628906 154.175781 88.679688 151.382812 91.628906 C 148.589844 94.582031 145.355469 97.445312 141.808594 100.199219 C 138.265625 102.957031 134.394531 105.597656 130.363281 108.183594 C 126.675781 110.550781 122.832031 112.863281 118.949219 115.171875 L 115.519531 111.742188 C 120.082031 105.359375 119.472656 96.375 113.707031 90.609375 C 107.296875 84.199219 96.898438 84.160156 90.535156 90.527344 C 87.484375 93.574219 85.796875 97.636719 85.777344 101.960938 C 85.757812 106.285156 87.410156 110.382812 90.421875 113.496094 C 91.453125 114.5625 93.148438 114.597656 94.207031 113.574219 C 95.253906 112.5625 95.285156 110.859375 94.253906 109.792969 C 90.082031 105.476562 90.117188 98.539062 94.332031 94.324219 C 98.617188 90.035156 105.621094 90.0625 109.9375 94.378906 C 114.253906 98.699219 114.28125 105.699219 109.988281 109.992188 C 108.949219 111.035156 108.957031 112.722656 110.007812 113.773438 C 110.042969 113.808594 110.082031 113.84375 110.121094 113.878906 C 110.136719 113.894531 110.148438 113.910156 110.164062 113.925781 L 114.21875 117.980469 L 114.222656 117.980469 C 111.171875 119.792969 108.117188 121.625 105.113281 123.507812 C 100.914062 126.140625 96.808594 128.863281 92.980469 131.828125 C 89.164062 134.78125 85.660156 137.9375 82.640625 141.242188 C 79.617188 144.542969 77.09375 148.007812 75.164062 151.433594 C 75.042969 151.644531 74.925781 151.859375 74.808594 152.074219 C 74.691406 152.289062 74.570312 152.492188 74.464844 152.710938 C 74.246094 153.140625 74.035156 153.566406 73.820312 153.988281 C 73.425781 154.839844 73.03125 155.667969 72.707031 156.503906 C 72.625 156.710938 72.539062 156.917969 72.457031 157.121094 C 72.371094 157.324219 72.304688 157.535156 72.226562 157.738281 C 72.078125 158.148438 71.933594 158.550781 71.796875 158.953125 C 71.546875 159.761719 71.285156 160.539062 71.101562 161.3125 C 70.675781 162.84375 70.425781 164.308594 70.214844 165.652344 C 70.175781 165.992188 70.136719 166.324219 70.101562 166.648438 C 70.082031 166.8125 70.0625 166.972656 70.046875 167.128906 C 70.039062 167.210938 70.03125 167.289062 70.019531 167.367188 C 70.015625 167.445312 70.007812 167.523438 70.003906 167.601562 C 69.984375 167.910156 69.964844 168.214844 69.945312 168.511719 C 69.9375 168.660156 69.925781 168.804688 69.917969 168.949219 C 69.914062 169.019531 69.910156 169.09375 69.90625 169.164062 C 69.90625 169.234375 69.902344 169.304688 69.902344 169.375 C 69.894531 169.9375 69.886719 170.464844 69.878906 170.964844 C 69.898438 171.464844 69.917969 171.929688 69.933594 172.363281 C 69.9375 172.472656 69.941406 172.578125 69.945312 172.679688 C 69.953125 172.785156 69.960938 172.886719 69.972656 172.988281 C 69.988281 173.1875 70.003906 173.378906 70.019531 173.5625 C 70.054688 173.929688 70.085938 174.257812 70.113281 174.554688 C 70.28125 175.726562 70.382812 176.351562 70.382812 176.351562 C 70.382812 176.351562 70.46875 175.722656 70.613281 174.554688 C 70.660156 174.265625 70.710938 173.941406 70.769531 173.589844 C 70.800781 173.414062 70.828125 173.230469 70.859375 173.035156 C 70.875 172.941406 70.890625 172.84375 70.910156 172.742188 C 70.929688 172.644531 70.949219 172.542969 70.972656 172.441406 C 71.054688 172.027344 71.144531 171.585938 71.242188 171.113281 C 71.355469 170.648438 71.476562 170.152344 71.601562 169.628906 C 71.617188 169.566406 71.632812 169.5 71.648438 169.433594 C 71.667969 169.367188 71.6875 169.300781 71.707031 169.234375 C 71.746094 169.105469 71.785156 168.96875 71.824219 168.835938 C 71.902344 168.566406 71.980469 168.289062 72.0625 168.003906 C 72.082031 167.933594 72.105469 167.863281 72.125 167.792969 C 72.148438 167.722656 72.171875 167.648438 72.195312 167.578125 C 72.246094 167.433594 72.292969 167.289062 72.339844 167.144531 C 72.4375 166.851562 72.535156 166.554688 72.636719 166.253906 C 72.75 165.953125 72.863281 165.648438 72.984375 165.335938 C 73.101562 165.027344 73.210938 164.710938 73.351562 164.394531 C 73.484375 164.082031 73.621094 163.761719 73.761719 163.433594 C 73.824219 163.269531 73.902344 163.109375 73.980469 162.945312 C 74.054688 162.78125 74.132812 162.617188 74.210938 162.453125 C 74.507812 161.785156 74.871094 161.125 75.222656 160.4375 C 75.40625 160.097656 75.605469 159.761719 75.796875 159.414062 C 75.898438 159.242188 75.988281 159.066406 76.097656 158.894531 C 76.199219 158.722656 76.308594 158.550781 76.414062 158.378906 C 76.828125 157.679688 77.296875 156.988281 77.769531 156.28125 C 78.015625 155.933594 78.265625 155.585938 78.519531 155.230469 C 78.640625 155.050781 78.78125 154.878906 78.910156 154.703125 C 79.042969 154.527344 79.175781 154.351562 79.3125 154.175781 C 81.484375 151.363281 84.128906 148.550781 87.191406 145.839844 C 90.253906 143.128906 93.714844 140.511719 97.464844 138.007812 C 97.929688 137.6875 98.410156 137.382812 98.882812 137.070312 C 99.359375 136.757812 99.847656 136.457031 100.328125 136.144531 C 100.820312 135.832031 101.316406 135.523438 101.8125 135.210938 C 102.304688 134.910156 102.796875 134.605469 103.292969 134.304688 C 103.796875 134 104.300781 133.691406 104.808594 133.386719 C 105.316406 133.082031 105.828125 132.777344 106.34375 132.476562 C 107.371094 131.867188 108.410156 131.257812 109.460938 130.652344 C 113.652344 128.214844 117.976562 125.765625 122.285156 123.207031 C 126.59375 120.648438 130.890625 117.988281 135.019531 115.152344 C 139.148438 112.316406 143.105469 109.300781 146.722656 106.074219 C 150.339844 102.847656 153.605469 99.410156 156.335938 95.828125 C 157.703125 94.042969 158.933594 92.21875 160.015625 90.390625 C 161.097656 88.566406 162.03125 86.730469 162.816406 84.925781 C 163.597656 83.117188 164.234375 81.339844 164.738281 79.625 C 164.855469 79.195312 164.972656 78.769531 165.089844 78.351562 C 165.148438 78.140625 165.195312 77.929688 165.242188 77.722656 C 165.292969 77.515625 165.339844 77.308594 165.386719 77.101562 C 165.433594 76.894531 165.480469 76.691406 165.527344 76.488281 C 165.566406 76.285156 165.605469 76.085938 165.644531 75.882812 C 165.683594 75.683594 165.722656 75.484375 165.757812 75.285156 C 165.796875 75.085938 165.835938 74.894531 165.863281 74.695312 C 166.371094 71.570312 166.492188 68.828125 166.425781 66.589844 C 166.402344 66.03125 166.375 65.503906 166.351562 65.007812 C 166.34375 64.761719 166.316406 64.519531 166.296875 64.289062 C 166.273438 64.058594 166.253906 63.835938 166.234375 63.621094 C 166.167969 62.757812 166.054688 62.03125 165.96875 61.441406 C 165.878906 60.855469 165.789062 60.410156 165.734375 60.109375 C 165.671875 59.808594 165.640625 59.652344 165.640625 59.652344 C 165.640625 59.652344 165.625 59.808594 165.597656 60.113281 " fill-opacity="1" fill-rule="nonzero"/></g></g></g></svg>