<svg xmlns="http://www.w3.org/2000/svg" xmlns:xlink="http://www.w3.org/1999/xlink" width="500" zoomAndPan="magnify" viewBox="0 0 375 112.499997" height="150" preserveAspectRatio="xMidYMid meet" version="1.0"><defs><g/><clipPath id="ffa0c52ffd"><path d="M 95.582031 58.191406 L 114.222656 58.191406 L 114.222656 62.414062 L 95.582031 62.414062 Z M 95.582031 58.191406 " clip-rule="nonzero"/></clipPath><clipPath id="9a38114c5f"><path d="M 77.34375 38.21875 L 108.175781 38.21875 L 108.175781 61.480469 L 77.34375 61.480469 Z M 77.34375 38.21875 " clip-rule="nonzero"/></clipPath><clipPath id="8c57079278"><path d="M 98 27 L 99 27 L 99 29 L 98 29 Z M 98 27 " clip-rule="nonzero"/></clipPath><clipPath id="08ae2dc538"><path d="M 107.292969 17.871094 L 133.367188 43.945312 L 124.5 52.8125 L 98.425781 26.738281 Z M 107.292969 17.871094 " clip-rule="nonzero"/></clipPath><clipPath id="dc11078a43"><path d="M 99 25 L 128 25 L 128 50 L 99 50 Z M 99 25 " clip-rule="nonzero"/></clipPath><clipPath id="e98c506294"><path d="M 107.292969 17.871094 L 133.367188 43.945312 L 124.5 52.8125 L 98.425781 26.738281 Z M 107.292969 17.871094 " clip-rule="nonzero"/></clipPath><clipPath id="2341015239"><path d="M 107.292969 17.871094 L 133.367188 43.945312 L 124.5 52.8125 L 98.425781 26.738281 Z M 107.292969 17.871094 " clip-rule="nonzero"/></clipPath><clipPath id="78850c4fe3"><path d="M 124 52 L 127 52 L 127 53 L 124 53 Z M 124 52 " clip-rule="nonzero"/></clipPath><clipPath id="308b96bc2d"><path d="M 135.367188 61.546875 L 109.292969 87.621094 L 100.425781 78.757812 L 126.5 52.683594 Z M 135.367188 61.546875 " clip-rule="nonzero"/></clipPath><clipPath id="68e18264bf"><path d="M 103 53 L 128 53 L 128 83 L 103 83 Z M 103 53 " clip-rule="nonzero"/></clipPath><clipPath id="dab70b1cfc"><path d="M 135.367188 61.546875 L 109.292969 87.621094 L 100.425781 78.757812 L 126.5 52.683594 Z M 135.367188 61.546875 " clip-rule="nonzero"/></clipPath><clipPath id="120c687e3d"><path d="M 135.367188 61.546875 L 109.292969 87.621094 L 100.425781 78.757812 L 126.5 52.683594 Z M 135.367188 61.546875 " clip-rule="nonzero"/></clipPath><clipPath id="a63e879243"><path d="M 95 79 L 96 79 L 96 82 L 95 82 Z M 95 79 " clip-rule="nonzero"/></clipPath><clipPath id="f19ea907eb"><path d="M 86.984375 90.40625 L 60.90625 64.328125 L 69.773438 55.464844 L 95.847656 81.539062 Z M 86.984375 90.40625 " clip-rule="nonzero"/></clipPath><clipPath id="9357a2d317"><path d="M 66 58 L 96 58 L 96 83 L 66 83 Z M 66 58 " clip-rule="nonzero"/></clipPath><clipPath id="03d18a71f6"><path d="M 86.984375 90.40625 L 60.90625 64.328125 L 69.773438 55.464844 L 95.847656 81.539062 Z M 86.984375 90.40625 " clip-rule="nonzero"/></clipPath><clipPath id="9d44e7447a"><path d="M 86.984375 90.40625 L 60.90625 64.328125 L 69.773438 55.464844 L 95.847656 81.539062 Z M 86.984375 90.40625 " clip-rule="nonzero"/></clipPath><clipPath id="25d1e467c2"><path d="M 70 53 L 73 53 L 73 54 L 70 54 Z M 70 53 " clip-rule="nonzero"/></clipPath><clipPath id="185f7d3607"><path d="M 61.617188 44.730469 L 87.691406 18.652344 L 96.554688 27.519531 L 70.480469 53.59375 Z M 61.617188 44.730469 " clip-rule="nonzero"/></clipPath><clipPath id="2ecfd25ac7"><path d="M 69 24 L 94 24 L 94 53 L 69 53 Z M 69 24 " clip-rule="nonzero"/></clipPath><clipPath id="136ccc3c5e"><path d="M 61.617188 44.730469 L 87.691406 18.652344 L 96.554688 27.519531 L 70.480469 53.59375 Z M 61.617188 44.730469 " clip-rule="nonzero"/></clipPath><clipPath id="0bdf3fc774"><path d="M 61.617188 44.730469 L 87.691406 18.652344 L 96.554688 27.519531 L 70.480469 53.59375 Z M 61.617188 44.730469 " clip-rule="nonzero"/></clipPath></defs><g clip-path="url(#ffa0c52ffd)"><path fill="#869ba6" d="M 95.699219 61.164062 C 95.699219 61.851562 96.285156 62.414062 97.003906 62.414062 L 112.914062 62.414062 C 113.636719 62.414062 114.222656 61.851562 114.222656 61.164062 C 114.222656 60.503906 113.6875 59.964844 113.007812 59.917969 C 113.011719 59.890625 113.015625 59.863281 113.015625 59.835938 L 113.015625 58.886719 C 113.015625 58.554688 112.734375 58.285156 112.386719 58.285156 L 97.53125 58.285156 C 97.183594 58.285156 96.902344 58.554688 96.902344 58.886719 L 96.902344 59.835938 C 96.902344 59.863281 96.910156 59.890625 96.914062 59.917969 C 96.234375 59.964844 95.699219 60.503906 95.699219 61.164062 " fill-opacity="1" fill-rule="nonzero"/></g><g clip-path="url(#9a38114c5f)"><path fill="#869ba6" d="M 101.117188 40.808594 L 92.652344 45.808594 C 92.179688 46.074219 91.570312 45.925781 91.292969 45.472656 L 90.785156 44.648438 C 90.507812 44.199219 90.664062 43.617188 91.132812 43.351562 L 99.601562 38.351562 C 100.070312 38.082031 100.679688 38.234375 100.957031 38.683594 L 101.464844 39.507812 C 101.746094 39.960938 101.589844 40.542969 101.117188 40.808594 Z M 107.625 51.296875 L 99.160156 56.296875 C 98.6875 56.5625 98.082031 56.410156 97.800781 55.960938 L 97.292969 55.136719 C 97.015625 54.683594 97.171875 54.101562 97.644531 53.835938 L 106.109375 48.835938 C 106.582031 48.570312 107.1875 48.71875 107.46875 49.171875 L 107.976562 49.996094 C 108.253906 50.449219 108.097656 51.03125 107.625 51.296875 Z M 77.734375 58.167969 C 78.25 57.285156 79.03125 56.671875 79.964844 56.230469 C 82.480469 55.039062 92.375 49.59375 93.386719 49.453125 C 93.566406 49.429688 93.671875 49.464844 93.765625 49.621094 C 94.082031 50.15625 94.410156 50.683594 94.75 51.203125 C 94.851562 51.359375 94.835938 51.464844 94.726562 51.605469 C 94.210938 52.261719 84.992188 58.835938 82.550781 60.464844 C 81.871094 60.921875 81.121094 61.226562 80.292969 61.371094 C 80.03125 61.375 79.769531 61.398438 79.507812 61.386719 C 78.464844 61.34375 77.699219 60.839844 77.429688 59.996094 C 77.222656 59.347656 77.402344 58.742188 77.734375 58.167969 Z M 97.273438 52.972656 C 99.859375 51.507812 102.925781 49.550781 105.507812 48.085938 C 104.164062 45.917969 102.84375 43.796875 101.503906 41.632812 C 98.929688 43.09375 95.863281 45.054688 93.269531 46.527344 C 94.605469 48.675781 95.929688 50.8125 97.273438 52.972656 " fill-opacity="1" fill-rule="nonzero"/></g><g clip-path="url(#8c57079278)"><g clip-path="url(#08ae2dc538)"><g fill="#000000" fill-opacity="1"><g transform="translate(97.252955, 27.910854)"><g><path d="M 1.046875 0.171875 C 0.742188 0.472656 0.5 0.53125 0.3125 0.34375 C 0.21875 0.25 0.179688 0.140625 0.203125 0.015625 C 0.234375 -0.0976562 0.328125 -0.234375 0.484375 -0.390625 C 0.617188 -0.523438 0.742188 -0.601562 0.859375 -0.625 C 0.984375 -0.65625 1.09375 -0.625 1.1875 -0.53125 C 1.28125 -0.4375 1.3125 -0.328125 1.28125 -0.203125 C 1.257812 -0.0859375 1.179688 0.0351562 1.046875 0.171875 Z M 0.921875 0.046875 C 1.054688 -0.0859375 1.140625 -0.195312 1.171875 -0.28125 C 1.203125 -0.363281 1.191406 -0.429688 1.140625 -0.484375 C 1.085938 -0.535156 1.019531 -0.546875 0.9375 -0.515625 C 0.851562 -0.484375 0.742188 -0.398438 0.609375 -0.265625 C 0.453125 -0.109375 0.359375 0.0078125 0.328125 0.09375 C 0.296875 0.175781 0.304688 0.242188 0.359375 0.296875 C 0.410156 0.347656 0.476562 0.351562 0.5625 0.3125 C 0.65625 0.28125 0.773438 0.191406 0.921875 0.046875 Z M 0.921875 0.046875 "/></g></g></g></g></g><g clip-path="url(#dc11078a43)"><g clip-path="url(#e98c506294)"><g clip-path="url(#2341015239)"><path fill="#800080" d="M 127.808594 49.363281 C 127.734375 49.355469 127.621094 49.347656 127.480469 49.332031 C 127.40625 49.324219 127.328125 49.316406 127.238281 49.304688 C 127.195312 49.296875 127.148438 49.292969 127.101562 49.285156 C 127.054688 49.277344 127.003906 49.269531 126.953125 49.261719 C 126.902344 49.253906 126.847656 49.246094 126.792969 49.238281 C 126.738281 49.230469 126.683594 49.222656 126.625 49.210938 C 126.507812 49.1875 126.382812 49.167969 126.253906 49.144531 C 125.734375 49.039062 125.113281 48.882812 124.433594 48.636719 C 124.09375 48.511719 123.742188 48.367188 123.378906 48.195312 C 123.019531 48.019531 122.648438 47.820312 122.277344 47.589844 C 121.535156 47.132812 120.785156 46.554688 120.058594 45.867188 C 119.332031 45.179688 118.628906 44.386719 117.953125 43.515625 C 117.273438 42.644531 116.625 41.691406 115.988281 40.703125 C 115.40625 39.792969 114.839844 38.851562 114.273438 37.894531 L 115.117188 37.050781 C 116.683594 38.175781 118.894531 38.023438 120.308594 36.605469 C 121.886719 35.03125 121.894531 32.476562 120.332031 30.910156 C 119.582031 30.160156 118.582031 29.746094 117.519531 29.742188 C 116.457031 29.734375 115.449219 30.140625 114.683594 30.882812 C 114.421875 31.136719 114.414062 31.550781 114.664062 31.8125 C 114.914062 32.070312 115.332031 32.078125 115.59375 31.824219 C 116.65625 30.796875 118.363281 30.808594 119.398438 31.84375 C 120.453125 32.898438 120.445312 34.617188 119.382812 35.679688 C 118.320312 36.742188 116.601562 36.746094 115.546875 35.691406 C 115.289062 35.4375 114.875 35.4375 114.617188 35.695312 C 114.605469 35.707031 114.597656 35.714844 114.589844 35.726562 C 114.585938 35.730469 114.582031 35.730469 114.578125 35.734375 L 113.582031 36.734375 C 113.136719 35.984375 112.683594 35.234375 112.222656 34.492188 C 111.574219 33.460938 110.90625 32.453125 110.179688 31.511719 C 109.453125 30.574219 108.675781 29.710938 107.863281 28.96875 C 107.050781 28.226562 106.199219 27.605469 105.359375 27.132812 C 105.304688 27.101562 105.253906 27.074219 105.199219 27.042969 C 105.148438 27.015625 105.097656 26.984375 105.042969 26.960938 C 104.9375 26.90625 104.832031 26.851562 104.730469 26.800781 C 104.519531 26.703125 104.316406 26.605469 104.109375 26.527344 C 104.058594 26.507812 104.007812 26.484375 103.960938 26.464844 C 103.910156 26.445312 103.859375 26.429688 103.808594 26.410156 C 103.707031 26.371094 103.609375 26.335938 103.507812 26.304688 C 103.308594 26.242188 103.121094 26.179688 102.929688 26.132812 C 102.554688 26.027344 102.191406 25.964844 101.863281 25.914062 C 101.777344 25.90625 101.695312 25.894531 101.617188 25.886719 C 101.578125 25.882812 101.539062 25.878906 101.5 25.875 C 101.480469 25.871094 101.460938 25.867188 101.441406 25.867188 C 101.421875 25.867188 101.402344 25.863281 101.382812 25.863281 C 101.308594 25.859375 101.230469 25.851562 101.160156 25.847656 C 101.121094 25.847656 101.085938 25.84375 101.050781 25.839844 C 101.035156 25.839844 101.015625 25.839844 101 25.839844 C 100.980469 25.839844 100.964844 25.839844 100.945312 25.835938 C 100.808594 25.835938 100.679688 25.835938 100.554688 25.832031 C 100.433594 25.835938 100.320312 25.839844 100.210938 25.84375 C 100.1875 25.847656 100.160156 25.847656 100.132812 25.847656 C 100.109375 25.851562 100.082031 25.851562 100.058594 25.855469 C 100.007812 25.859375 99.960938 25.863281 99.917969 25.867188 C 99.828125 25.875 99.746094 25.882812 99.671875 25.890625 C 99.386719 25.929688 99.230469 25.957031 99.230469 25.957031 C 99.230469 25.957031 99.386719 25.976562 99.675781 26.011719 C 99.746094 26.023438 99.824219 26.035156 99.910156 26.050781 C 99.953125 26.058594 100 26.066406 100.046875 26.074219 C 100.070312 26.078125 100.09375 26.082031 100.117188 26.085938 C 100.144531 26.089844 100.167969 26.09375 100.195312 26.101562 C 100.292969 26.121094 100.402344 26.144531 100.519531 26.167969 C 100.632812 26.195312 100.753906 26.222656 100.882812 26.253906 C 100.898438 26.257812 100.917969 26.261719 100.933594 26.265625 C 100.949219 26.273438 100.964844 26.277344 100.980469 26.28125 C 101.015625 26.289062 101.046875 26.300781 101.078125 26.308594 C 101.144531 26.328125 101.214844 26.347656 101.285156 26.367188 C 101.300781 26.375 101.320312 26.378906 101.335938 26.382812 C 101.355469 26.390625 101.371094 26.394531 101.390625 26.402344 C 101.425781 26.414062 101.460938 26.425781 101.496094 26.4375 C 101.566406 26.460938 101.640625 26.484375 101.714844 26.507812 C 101.789062 26.539062 101.863281 26.566406 101.941406 26.59375 C 102.015625 26.625 102.09375 26.652344 102.171875 26.6875 C 102.25 26.71875 102.328125 26.75 102.40625 26.785156 C 102.449219 26.800781 102.488281 26.820312 102.527344 26.839844 C 102.566406 26.859375 102.609375 26.878906 102.648438 26.898438 C 102.8125 26.96875 102.976562 27.058594 103.144531 27.144531 C 103.226562 27.191406 103.3125 27.238281 103.394531 27.289062 C 103.4375 27.3125 103.480469 27.332031 103.523438 27.359375 C 103.566406 27.386719 103.609375 27.414062 103.652344 27.4375 C 103.820312 27.539062 103.992188 27.65625 104.164062 27.773438 C 104.25 27.832031 104.335938 27.894531 104.425781 27.957031 C 104.46875 27.984375 104.511719 28.019531 104.554688 28.050781 C 104.597656 28.085938 104.640625 28.117188 104.683594 28.152344 C 105.375 28.683594 106.066406 29.335938 106.734375 30.089844 C 107.398438 30.839844 108.042969 31.691406 108.660156 32.613281 C 108.738281 32.726562 108.8125 32.847656 108.890625 32.960938 C 108.964844 33.078125 109.039062 33.199219 109.117188 33.316406 C 109.191406 33.4375 109.269531 33.558594 109.347656 33.683594 C 109.421875 33.804688 109.496094 33.925781 109.570312 34.046875 C 109.644531 34.171875 109.71875 34.292969 109.792969 34.417969 C 109.867188 34.542969 109.945312 34.667969 110.019531 34.796875 C 110.167969 35.050781 110.316406 35.304688 110.464844 35.5625 C 111.066406 36.59375 111.667969 37.65625 112.296875 38.714844 C 112.925781 39.773438 113.578125 40.832031 114.277344 41.84375 C 114.972656 42.859375 115.714844 43.835938 116.507812 44.722656 C 117.300781 45.613281 118.148438 46.414062 119.027344 47.085938 C 119.46875 47.421875 119.914062 47.726562 120.363281 47.992188 C 120.8125 48.257812 121.265625 48.488281 121.707031 48.679688 C 122.152344 48.871094 122.589844 49.027344 123.011719 49.152344 C 123.117188 49.179688 123.222656 49.210938 123.324219 49.238281 C 123.375 49.253906 123.425781 49.265625 123.476562 49.277344 C 123.53125 49.289062 123.582031 49.300781 123.632812 49.3125 C 123.683594 49.324219 123.730469 49.335938 123.78125 49.347656 C 123.832031 49.355469 123.882812 49.367188 123.929688 49.375 C 123.980469 49.382812 124.027344 49.394531 124.078125 49.402344 C 124.125 49.414062 124.175781 49.421875 124.222656 49.429688 C 124.992188 49.554688 125.664062 49.582031 126.214844 49.566406 C 126.351562 49.5625 126.484375 49.554688 126.605469 49.546875 C 126.664062 49.546875 126.722656 49.539062 126.78125 49.535156 C 126.839844 49.53125 126.894531 49.523438 126.945312 49.519531 C 127.15625 49.503906 127.335938 49.476562 127.480469 49.453125 C 127.625 49.433594 127.734375 49.410156 127.808594 49.394531 C 127.882812 49.382812 127.921875 49.375 127.921875 49.375 C 127.921875 49.375 127.882812 49.371094 127.808594 49.363281 " fill-opacity="1" fill-rule="nonzero"/></g></g></g><g clip-path="url(#78850c4fe3)"><g clip-path="url(#308b96bc2d)"><g fill="#000000" fill-opacity="1"><g transform="translate(125.328282, 51.508749)"><g><path d="M -0.171875 1.046875 C -0.472656 0.742188 -0.53125 0.5 -0.34375 0.3125 C -0.25 0.21875 -0.140625 0.179688 -0.015625 0.203125 C 0.0976562 0.234375 0.234375 0.328125 0.390625 0.484375 C 0.523438 0.617188 0.601562 0.742188 0.625 0.859375 C 0.65625 0.984375 0.625 1.09375 0.53125 1.1875 C 0.4375 1.28125 0.328125 1.3125 0.203125 1.28125 C 0.0859375 1.257812 -0.0351562 1.179688 -0.171875 1.046875 Z M -0.046875 0.921875 C 0.0859375 1.054688 0.195312 1.140625 0.28125 1.171875 C 0.363281 1.203125 0.429688 1.191406 0.484375 1.140625 C 0.535156 1.085938 0.546875 1.019531 0.515625 0.9375 C 0.484375 0.851562 0.398438 0.742188 0.265625 0.609375 C 0.109375 0.453125 -0.0078125 0.359375 -0.09375 0.328125 C -0.175781 0.296875 -0.242188 0.304688 -0.296875 0.359375 C -0.347656 0.410156 -0.351562 0.476562 -0.3125 0.5625 C -0.28125 0.65625 -0.191406 0.773438 -0.046875 0.921875 Z M -0.046875 0.921875 "/></g></g></g></g></g><g clip-path="url(#68e18264bf)"><g clip-path="url(#dab70b1cfc)"><g clip-path="url(#120c687e3d)"><path fill="#800080" d="M 103.875 82.0625 C 103.882812 81.988281 103.894531 81.878906 103.90625 81.734375 C 103.914062 81.664062 103.925781 81.582031 103.9375 81.496094 C 103.941406 81.453125 103.949219 81.40625 103.953125 81.359375 C 103.960938 81.308594 103.96875 81.261719 103.976562 81.210938 C 103.984375 81.15625 103.992188 81.105469 104 81.050781 C 104.007812 80.996094 104.015625 80.9375 104.027344 80.878906 C 104.050781 80.761719 104.070312 80.640625 104.09375 80.507812 C 104.199219 79.988281 104.355469 79.367188 104.601562 78.6875 C 104.726562 78.351562 104.871094 77.996094 105.042969 77.632812 C 105.21875 77.273438 105.417969 76.90625 105.648438 76.535156 C 106.105469 75.789062 106.683594 75.042969 107.371094 74.316406 C 108.058594 73.589844 108.851562 72.886719 109.722656 72.207031 C 110.59375 71.53125 111.546875 70.882812 112.539062 70.246094 C 113.445312 69.664062 114.390625 69.097656 115.34375 68.527344 L 116.1875 69.371094 C 115.066406 70.941406 115.214844 73.148438 116.632812 74.566406 C 118.207031 76.144531 120.765625 76.152344 122.328125 74.585938 C 123.078125 73.835938 123.496094 72.839844 123.5 71.773438 C 123.503906 70.710938 123.097656 69.707031 122.355469 68.941406 C 122.101562 68.675781 121.6875 68.667969 121.425781 68.921875 C 121.167969 69.167969 121.160156 69.589844 121.414062 69.851562 C 122.441406 70.910156 122.433594 72.617188 121.394531 73.652344 C 120.34375 74.707031 118.621094 74.699219 117.558594 73.640625 C 116.496094 72.578125 116.492188 70.855469 117.546875 69.800781 C 117.800781 69.546875 117.800781 69.128906 117.542969 68.871094 C 117.535156 68.863281 117.523438 68.855469 117.515625 68.847656 C 117.511719 68.84375 117.507812 68.839844 117.503906 68.835938 L 116.507812 67.835938 L 116.503906 67.835938 C 117.253906 67.390625 118.007812 66.941406 118.746094 66.480469 C 119.777344 65.832031 120.785156 65.164062 121.726562 64.433594 C 122.667969 63.707031 123.527344 62.929688 124.269531 62.117188 C 125.011719 61.308594 125.632812 60.457031 126.109375 59.613281 C 126.136719 59.5625 126.167969 59.507812 126.195312 59.457031 C 126.222656 59.402344 126.253906 59.351562 126.28125 59.300781 C 126.332031 59.195312 126.386719 59.089844 126.4375 58.984375 C 126.535156 58.777344 126.632812 58.570312 126.710938 58.367188 C 126.730469 58.316406 126.753906 58.265625 126.773438 58.214844 C 126.792969 58.164062 126.8125 58.113281 126.828125 58.0625 C 126.867188 57.960938 126.902344 57.863281 126.9375 57.765625 C 126.996094 57.566406 127.0625 57.375 127.105469 57.183594 C 127.210938 56.808594 127.273438 56.449219 127.324219 56.117188 C 127.332031 56.035156 127.34375 55.953125 127.351562 55.871094 C 127.355469 55.832031 127.363281 55.792969 127.367188 55.753906 C 127.367188 55.734375 127.371094 55.714844 127.371094 55.695312 C 127.375 55.675781 127.375 55.65625 127.375 55.640625 C 127.382812 55.5625 127.386719 55.488281 127.390625 55.414062 C 127.394531 55.378906 127.394531 55.34375 127.398438 55.308594 C 127.398438 55.289062 127.398438 55.273438 127.402344 55.253906 C 127.402344 55.238281 127.402344 55.21875 127.402344 55.203125 C 127.402344 55.066406 127.40625 54.933594 127.40625 54.8125 C 127.402344 54.691406 127.398438 54.574219 127.394531 54.46875 C 127.390625 54.441406 127.390625 54.414062 127.390625 54.390625 C 127.390625 54.363281 127.386719 54.339844 127.382812 54.316406 C 127.378906 54.265625 127.375 54.21875 127.371094 54.171875 C 127.363281 54.082031 127.355469 54.003906 127.347656 53.929688 C 127.308594 53.640625 127.285156 53.488281 127.285156 53.488281 C 127.285156 53.488281 127.261719 53.640625 127.226562 53.929688 C 127.214844 54 127.203125 54.078125 127.1875 54.167969 C 127.179688 54.210938 127.171875 54.253906 127.164062 54.300781 C 127.160156 54.328125 127.160156 54.351562 127.152344 54.375 C 127.148438 54.398438 127.144531 54.425781 127.136719 54.449219 C 127.117188 54.550781 127.09375 54.660156 127.070312 54.777344 C 127.042969 54.890625 127.015625 55.011719 126.984375 55.140625 C 126.980469 55.15625 126.976562 55.171875 126.972656 55.1875 C 126.96875 55.203125 126.960938 55.21875 126.957031 55.238281 C 126.949219 55.269531 126.9375 55.300781 126.929688 55.335938 C 126.910156 55.402344 126.890625 55.46875 126.871094 55.539062 C 126.863281 55.558594 126.859375 55.574219 126.855469 55.59375 C 126.847656 55.609375 126.84375 55.628906 126.835938 55.644531 C 126.824219 55.679688 126.8125 55.714844 126.800781 55.75 C 126.777344 55.824219 126.753906 55.894531 126.730469 55.96875 C 126.703125 56.042969 126.671875 56.117188 126.644531 56.195312 C 126.613281 56.269531 126.589844 56.347656 126.554688 56.425781 C 126.519531 56.503906 126.488281 56.582031 126.453125 56.664062 C 126.4375 56.703125 126.417969 56.742188 126.398438 56.785156 C 126.378906 56.824219 126.363281 56.863281 126.34375 56.90625 C 126.269531 57.066406 126.179688 57.230469 126.09375 57.398438 C 126.046875 57.484375 126 57.566406 125.953125 57.652344 C 125.925781 57.695312 125.90625 57.738281 125.878906 57.777344 C 125.851562 57.820312 125.828125 57.863281 125.800781 57.90625 C 125.699219 58.078125 125.582031 58.246094 125.46875 58.421875 C 125.40625 58.507812 125.34375 58.59375 125.28125 58.679688 C 125.253906 58.722656 125.21875 58.765625 125.1875 58.808594 C 125.152344 58.851562 125.121094 58.894531 125.089844 58.9375 C 124.554688 59.628906 123.902344 60.324219 123.152344 60.988281 C 122.398438 61.65625 121.546875 62.296875 120.625 62.914062 C 120.511719 62.992188 120.394531 63.066406 120.277344 63.144531 C 120.160156 63.222656 120.039062 63.296875 119.921875 63.371094 C 119.800781 63.449219 119.679688 63.523438 119.554688 63.601562 C 119.4375 63.675781 119.3125 63.75 119.191406 63.824219 C 119.070312 63.898438 118.945312 63.976562 118.820312 64.050781 C 118.695312 64.125 118.570312 64.199219 118.441406 64.273438 C 118.191406 64.421875 117.933594 64.574219 117.675781 64.722656 C 116.644531 65.320312 115.582031 65.925781 114.523438 66.550781 C 113.464844 67.183594 112.410156 67.835938 111.394531 68.53125 C 110.378906 69.230469 109.40625 69.972656 108.515625 70.765625 C 107.628906 71.558594 106.824219 72.402344 106.152344 73.28125 C 105.816406 73.722656 105.515625 74.171875 105.25 74.621094 C 104.980469 75.070312 104.753906 75.519531 104.558594 75.964844 C 104.367188 76.40625 104.210938 76.84375 104.085938 77.265625 C 104.058594 77.371094 104.03125 77.476562 104 77.578125 C 103.988281 77.632812 103.976562 77.683594 103.964844 77.734375 C 103.949219 77.785156 103.941406 77.835938 103.925781 77.886719 C 103.914062 77.9375 103.90625 77.988281 103.894531 78.039062 C 103.882812 78.085938 103.875 78.136719 103.863281 78.1875 C 103.855469 78.234375 103.84375 78.285156 103.835938 78.332031 C 103.828125 78.382812 103.816406 78.429688 103.808594 78.480469 C 103.683594 79.246094 103.65625 79.921875 103.671875 80.472656 C 103.679688 80.609375 103.683594 80.738281 103.691406 80.859375 C 103.691406 80.921875 103.699219 80.980469 103.703125 81.039062 C 103.710938 81.09375 103.714844 81.148438 103.71875 81.203125 C 103.734375 81.414062 103.761719 81.59375 103.785156 81.738281 C 103.808594 81.882812 103.828125 81.992188 103.84375 82.066406 C 103.855469 82.136719 103.867188 82.175781 103.867188 82.175781 C 103.867188 82.175781 103.867188 82.136719 103.875 82.0625 " fill-opacity="1" fill-rule="nonzero"/></g></g></g><g clip-path="url(#a63e879243)"><g clip-path="url(#f19ea907eb)"><g fill="#000000" fill-opacity="1"><g transform="translate(97.022046, 80.365862)"><g><path d="M -1.046875 -0.171875 C -0.742188 -0.472656 -0.5 -0.53125 -0.3125 -0.34375 C -0.21875 -0.25 -0.179688 -0.140625 -0.203125 -0.015625 C -0.234375 0.0976562 -0.328125 0.234375 -0.484375 0.390625 C -0.617188 0.523438 -0.742188 0.601562 -0.859375 0.625 C -0.984375 0.65625 -1.09375 0.625 -1.1875 0.53125 C -1.28125 0.4375 -1.3125 0.328125 -1.28125 0.203125 C -1.257812 0.0859375 -1.179688 -0.0351562 -1.046875 -0.171875 Z M -0.921875 -0.046875 C -1.054688 0.0859375 -1.140625 0.195312 -1.171875 0.28125 C -1.203125 0.363281 -1.191406 0.429688 -1.140625 0.484375 C -1.085938 0.535156 -1.019531 0.546875 -0.9375 0.515625 C -0.851562 0.484375 -0.742188 0.398438 -0.609375 0.265625 C -0.453125 0.109375 -0.359375 -0.0078125 -0.328125 -0.09375 C -0.296875 -0.175781 -0.304688 -0.242188 -0.359375 -0.296875 C -0.410156 -0.347656 -0.476562 -0.351562 -0.5625 -0.3125 C -0.65625 -0.28125 -0.773438 -0.191406 -0.921875 -0.046875 Z M -0.921875 -0.046875 "/></g></g></g></g></g><g clip-path="url(#9357a2d317)"><g clip-path="url(#03d18a71f6)"><g clip-path="url(#9d44e7447a)"><path fill="#800080" d="M 66.46875 58.914062 C 66.542969 58.917969 66.652344 58.929688 66.796875 58.945312 C 66.867188 58.953125 66.949219 58.960938 67.035156 58.972656 C 67.078125 58.980469 67.125 58.984375 67.171875 58.992188 C 67.21875 59 67.269531 59.007812 67.320312 59.015625 C 67.371094 59.023438 67.425781 59.03125 67.480469 59.039062 C 67.535156 59.046875 67.59375 59.054688 67.652344 59.066406 C 67.769531 59.085938 67.890625 59.109375 68.023438 59.132812 C 68.542969 59.238281 69.164062 59.394531 69.839844 59.640625 C 70.179688 59.765625 70.535156 59.910156 70.894531 60.082031 C 71.257812 60.257812 71.625 60.457031 71.996094 60.6875 C 72.742188 61.144531 73.488281 61.722656 74.214844 62.410156 C 74.941406 63.09375 75.644531 63.890625 76.324219 64.761719 C 77 65.632812 77.648438 66.585938 78.285156 67.574219 C 78.867188 68.484375 79.433594 69.425781 80.003906 70.382812 L 79.160156 71.222656 C 77.589844 70.101562 75.382812 70.253906 73.964844 71.671875 C 72.386719 73.246094 72.378906 75.800781 73.945312 77.367188 C 74.695312 78.117188 75.691406 78.53125 76.753906 78.535156 C 77.816406 78.539062 78.824219 78.136719 79.589844 77.394531 C 79.851562 77.140625 79.863281 76.726562 79.609375 76.464844 C 79.359375 76.207031 78.941406 76.199219 78.679688 76.453125 C 77.621094 77.476562 75.914062 77.46875 74.878906 76.433594 C 73.824219 75.378906 73.828125 73.660156 74.890625 72.597656 C 75.953125 71.535156 77.675781 71.527344 78.730469 72.585938 C 78.984375 72.839844 79.402344 72.839844 79.660156 72.578125 C 79.667969 72.570312 79.675781 72.5625 79.683594 72.550781 C 79.6875 72.546875 79.691406 72.542969 79.695312 72.542969 L 80.695312 71.542969 L 80.691406 71.542969 C 81.140625 72.292969 81.589844 73.042969 82.050781 73.78125 C 82.699219 74.816406 83.367188 75.824219 84.097656 76.765625 C 84.824219 77.703125 85.597656 78.566406 86.410156 79.308594 C 87.222656 80.050781 88.074219 80.671875 88.917969 81.144531 C 88.96875 81.175781 89.023438 81.203125 89.074219 81.234375 C 89.128906 81.261719 89.179688 81.292969 89.230469 81.316406 C 89.335938 81.371094 89.441406 81.421875 89.542969 81.476562 C 89.753906 81.574219 89.957031 81.667969 90.164062 81.75 C 90.214844 81.769531 90.265625 81.789062 90.316406 81.8125 C 90.367188 81.832031 90.417969 81.847656 90.46875 81.867188 C 90.566406 81.902344 90.667969 81.941406 90.765625 81.972656 C 90.964844 82.035156 91.15625 82.097656 91.347656 82.144531 C 91.722656 82.25 92.082031 82.308594 92.414062 82.363281 C 92.496094 82.371094 92.578125 82.382812 92.65625 82.390625 C 92.699219 82.394531 92.738281 82.398438 92.777344 82.402344 C 92.796875 82.40625 92.816406 82.40625 92.835938 82.410156 C 92.851562 82.410156 92.871094 82.414062 92.890625 82.414062 C 92.96875 82.417969 93.042969 82.425781 93.117188 82.429688 C 93.152344 82.429688 93.1875 82.433594 93.222656 82.433594 C 93.242188 82.4375 93.257812 82.4375 93.277344 82.4375 C 93.292969 82.4375 93.3125 82.4375 93.328125 82.4375 C 93.464844 82.441406 93.597656 82.441406 93.71875 82.445312 C 93.839844 82.441406 93.957031 82.433594 94.0625 82.429688 C 94.089844 82.429688 94.113281 82.429688 94.140625 82.429688 C 94.167969 82.425781 94.191406 82.425781 94.214844 82.421875 C 94.265625 82.417969 94.3125 82.414062 94.359375 82.410156 C 94.445312 82.402344 94.527344 82.394531 94.601562 82.386719 C 94.890625 82.347656 95.042969 82.320312 95.042969 82.320312 C 95.042969 82.320312 94.890625 82.300781 94.601562 82.265625 C 94.53125 82.253906 94.449219 82.238281 94.363281 82.226562 C 94.320312 82.21875 94.273438 82.210938 94.226562 82.203125 C 94.203125 82.199219 94.179688 82.195312 94.15625 82.191406 C 94.132812 82.1875 94.105469 82.179688 94.082031 82.175781 C 93.980469 82.15625 93.871094 82.132812 93.753906 82.109375 C 93.640625 82.082031 93.519531 82.050781 93.390625 82.019531 C 93.375 82.015625 93.359375 82.011719 93.34375 82.007812 C 93.328125 82.003906 93.308594 82 93.292969 81.996094 C 93.261719 81.984375 93.230469 81.976562 93.195312 81.964844 C 93.128906 81.949219 93.0625 81.929688 92.992188 81.90625 C 92.972656 81.902344 92.957031 81.898438 92.9375 81.894531 C 92.921875 81.886719 92.902344 81.882812 92.886719 81.875 C 92.851562 81.863281 92.816406 81.851562 92.78125 81.839844 C 92.707031 81.816406 92.636719 81.792969 92.558594 81.765625 C 92.488281 81.738281 92.410156 81.710938 92.335938 81.683594 C 92.257812 81.652344 92.179688 81.625 92.105469 81.589844 C 92.027344 81.558594 91.949219 81.523438 91.867188 81.492188 C 91.828125 81.476562 91.789062 81.457031 91.746094 81.4375 C 91.707031 81.417969 91.667969 81.398438 91.625 81.378906 C 91.460938 81.304688 91.300781 81.21875 91.128906 81.132812 C 91.046875 81.085938 90.964844 81.035156 90.878906 80.988281 C 90.835938 80.964844 90.792969 80.941406 90.75 80.917969 C 90.710938 80.890625 90.667969 80.863281 90.625 80.839844 C 90.453125 80.734375 90.28125 80.621094 90.109375 80.503906 C 90.023438 80.445312 89.9375 80.382812 89.851562 80.320312 C 89.804688 80.289062 89.765625 80.257812 89.722656 80.222656 C 89.679688 80.191406 89.636719 80.160156 89.589844 80.125 C 88.898438 79.589844 88.207031 78.941406 87.542969 78.1875 C 86.875 77.4375 86.234375 76.585938 85.617188 75.664062 C 85.539062 75.550781 85.464844 75.429688 85.386719 75.3125 C 85.308594 75.199219 85.234375 75.078125 85.160156 74.960938 C 85.082031 74.839844 85.003906 74.714844 84.929688 74.59375 C 84.855469 74.472656 84.78125 74.351562 84.707031 74.230469 C 84.632812 74.105469 84.554688 73.984375 84.480469 73.859375 C 84.40625 73.734375 84.332031 73.605469 84.257812 73.480469 C 84.109375 73.226562 83.957031 72.972656 83.808594 72.714844 C 83.210938 71.683594 82.605469 70.621094 81.976562 69.5625 C 81.347656 68.503906 80.695312 67.445312 79.996094 66.429688 C 79.300781 65.417969 78.558594 64.441406 77.765625 63.554688 C 76.972656 62.664062 76.128906 61.863281 75.246094 61.191406 C 74.808594 60.855469 74.359375 60.550781 73.910156 60.285156 C 73.460938 60.019531 73.011719 59.789062 72.566406 59.597656 C 72.121094 59.40625 71.6875 59.25 71.265625 59.125 C 71.160156 59.09375 71.054688 59.066406 70.949219 59.039062 C 70.898438 59.023438 70.847656 59.011719 70.796875 59 C 70.746094 58.988281 70.695312 58.976562 70.644531 58.964844 C 70.59375 58.953125 70.542969 58.941406 70.492188 58.929688 C 70.441406 58.921875 70.394531 58.910156 70.34375 58.902344 C 70.292969 58.890625 70.246094 58.882812 70.199219 58.875 C 70.148438 58.863281 70.101562 58.855469 70.050781 58.847656 C 69.285156 58.722656 68.609375 58.695312 68.058594 58.710938 C 67.921875 58.714844 67.792969 58.722656 67.671875 58.726562 C 67.609375 58.730469 67.550781 58.738281 67.492188 58.742188 C 67.4375 58.746094 67.382812 58.753906 67.328125 58.757812 C 67.117188 58.773438 66.9375 58.800781 66.792969 58.824219 C 66.648438 58.84375 66.539062 58.867188 66.464844 58.878906 C 66.390625 58.894531 66.355469 58.902344 66.355469 58.902344 C 66.355469 58.902344 66.394531 58.90625 66.46875 58.914062 " fill-opacity="1" fill-rule="nonzero"/></g></g></g><g clip-path="url(#25d1e467c2)"><g clip-path="url(#185f7d3607)"><g fill="#000000" fill-opacity="1"><g transform="translate(71.654747, 54.767661)"><g><path d="M 0.171875 -1.046875 C 0.472656 -0.742188 0.53125 -0.5 0.34375 -0.3125 C 0.25 -0.21875 0.140625 -0.179688 0.015625 -0.203125 C -0.0976562 -0.234375 -0.234375 -0.328125 -0.390625 -0.484375 C -0.523438 -0.617188 -0.601562 -0.742188 -0.625 -0.859375 C -0.65625 -0.984375 -0.625 -1.09375 -0.53125 -1.1875 C -0.4375 -1.28125 -0.328125 -1.3125 -0.203125 -1.28125 C -0.0859375 -1.257812 0.0351562 -1.179688 0.171875 -1.046875 Z M 0.046875 -0.921875 C -0.0859375 -1.054688 -0.195312 -1.140625 -0.28125 -1.171875 C -0.363281 -1.203125 -0.429688 -1.191406 -0.484375 -1.140625 C -0.535156 -1.085938 -0.546875 -1.019531 -0.515625 -0.9375 C -0.484375 -0.851562 -0.398438 -0.742188 -0.265625 -0.609375 C -0.109375 -0.453125 0.0078125 -0.359375 0.09375 -0.328125 C 0.175781 -0.296875 0.242188 -0.304688 0.296875 -0.359375 C 0.347656 -0.410156 0.351562 -0.476562 0.3125 -0.5625 C 0.28125 -0.65625 0.191406 -0.773438 0.046875 -0.921875 Z M 0.046875 -0.921875 "/></g></g></g></g></g><g clip-path="url(#2ecfd25ac7)"><g clip-path="url(#136ccc3c5e)"><g clip-path="url(#0bdf3fc774)"><path fill="#800080" d="M 93.109375 24.214844 C 93.101562 24.289062 93.089844 24.398438 93.074219 24.542969 C 93.066406 24.613281 93.058594 24.695312 93.046875 24.78125 C 93.042969 24.824219 93.035156 24.871094 93.027344 24.917969 C 93.023438 24.964844 93.015625 25.015625 93.007812 25.066406 C 93 25.117188 92.992188 25.171875 92.980469 25.226562 C 92.972656 25.28125 92.964844 25.339844 92.953125 25.398438 C 92.933594 25.511719 92.914062 25.636719 92.886719 25.765625 C 92.785156 26.289062 92.625 26.90625 92.382812 27.585938 C 92.257812 27.925781 92.113281 28.28125 91.9375 28.640625 C 91.765625 29.003906 91.5625 29.371094 91.335938 29.742188 C 90.875 30.484375 90.300781 31.234375 89.613281 31.960938 C 88.925781 32.6875 88.132812 33.390625 87.257812 34.066406 C 86.386719 34.746094 85.4375 35.394531 84.445312 36.03125 C 83.539062 36.613281 82.59375 37.179688 81.640625 37.746094 L 80.796875 36.90625 C 81.917969 35.335938 81.769531 33.128906 80.351562 31.710938 C 78.773438 30.132812 76.21875 30.125 74.652344 31.691406 C 73.902344 32.4375 73.488281 33.4375 73.484375 34.5 C 73.480469 35.5625 73.886719 36.570312 74.625 37.335938 C 74.878906 37.597656 75.296875 37.609375 75.554688 37.355469 C 75.8125 37.105469 75.820312 36.6875 75.566406 36.425781 C 74.542969 35.363281 74.550781 33.660156 75.585938 32.621094 C 76.640625 31.570312 78.363281 31.574219 79.421875 32.636719 C 80.484375 33.699219 80.492188 35.417969 79.4375 36.476562 C 79.179688 36.730469 79.183594 37.148438 79.441406 37.40625 C 79.449219 37.414062 79.460938 37.421875 79.46875 37.429688 C 79.472656 37.433594 79.476562 37.4375 79.480469 37.441406 L 80.476562 38.4375 C 79.726562 38.886719 78.976562 39.335938 78.238281 39.796875 C 77.207031 40.445312 76.195312 41.113281 75.253906 41.84375 C 74.316406 42.570312 73.457031 43.34375 72.714844 44.15625 C 71.96875 44.96875 71.351562 45.820312 70.875 46.664062 C 70.84375 46.714844 70.816406 46.769531 70.789062 46.820312 C 70.757812 46.871094 70.730469 46.921875 70.703125 46.976562 C 70.648438 47.082031 70.597656 47.1875 70.546875 47.289062 C 70.449219 47.5 70.351562 47.703125 70.269531 47.910156 C 70.25 47.960938 70.230469 48.011719 70.210938 48.0625 C 70.1875 48.113281 70.171875 48.164062 70.152344 48.214844 C 70.117188 48.3125 70.082031 48.414062 70.046875 48.511719 C 69.984375 48.710938 69.921875 48.902344 69.875 49.089844 C 69.773438 49.46875 69.710938 49.828125 69.660156 50.160156 C 69.648438 50.242188 69.640625 50.324219 69.628906 50.402344 C 69.625 50.445312 69.621094 50.484375 69.617188 50.523438 C 69.613281 50.542969 69.613281 50.558594 69.609375 50.578125 C 69.609375 50.597656 69.609375 50.617188 69.605469 50.636719 C 69.601562 50.714844 69.597656 50.789062 69.59375 50.859375 C 69.589844 50.898438 69.585938 50.933594 69.585938 50.96875 C 69.585938 50.988281 69.582031 51.003906 69.582031 51.019531 C 69.582031 51.039062 69.582031 51.054688 69.582031 51.074219 C 69.578125 51.210938 69.578125 51.339844 69.574219 51.464844 C 69.582031 51.585938 69.585938 51.703125 69.589844 51.808594 C 69.589844 51.835938 69.589844 51.859375 69.59375 51.886719 C 69.59375 51.910156 69.597656 51.9375 69.597656 51.960938 C 69.601562 52.011719 69.605469 52.058594 69.609375 52.101562 C 69.621094 52.191406 69.628906 52.273438 69.632812 52.347656 C 69.675781 52.636719 69.699219 52.789062 69.699219 52.789062 C 69.699219 52.789062 69.722656 52.632812 69.757812 52.347656 C 69.769531 52.277344 69.78125 52.195312 69.796875 52.109375 C 69.800781 52.066406 69.808594 52.019531 69.816406 51.972656 C 69.820312 51.949219 69.824219 51.925781 69.828125 51.902344 C 69.835938 51.878906 69.839844 51.851562 69.84375 51.828125 C 69.863281 51.726562 69.886719 51.617188 69.910156 51.5 C 69.9375 51.386719 69.96875 51.265625 70 51.136719 C 70.003906 51.121094 70.007812 51.105469 70.011719 51.089844 C 70.015625 51.070312 70.019531 51.054688 70.023438 51.039062 C 70.035156 51.007812 70.042969 50.972656 70.054688 50.941406 C 70.074219 50.875 70.09375 50.804688 70.113281 50.738281 C 70.117188 50.71875 70.121094 50.703125 70.128906 50.683594 C 70.132812 50.667969 70.140625 50.648438 70.144531 50.632812 C 70.15625 50.597656 70.167969 50.5625 70.179688 50.523438 C 70.203125 50.453125 70.230469 50.378906 70.253906 50.304688 C 70.28125 50.234375 70.308594 50.15625 70.339844 50.082031 C 70.367188 50.003906 70.394531 49.925781 70.429688 49.851562 C 70.460938 49.773438 70.496094 49.691406 70.53125 49.613281 C 70.546875 49.574219 70.566406 49.53125 70.582031 49.492188 C 70.601562 49.453125 70.621094 49.414062 70.640625 49.371094 C 70.714844 49.207031 70.804688 49.046875 70.890625 48.875 C 70.933594 48.792969 70.984375 48.710938 71.03125 48.625 C 71.054688 48.582031 71.078125 48.539062 71.105469 48.496094 C 71.128906 48.453125 71.15625 48.414062 71.183594 48.371094 C 71.285156 48.199219 71.398438 48.027344 71.515625 47.855469 C 71.578125 47.769531 71.636719 47.683594 71.699219 47.597656 C 71.730469 47.550781 71.765625 47.511719 71.796875 47.46875 C 71.828125 47.425781 71.863281 47.378906 71.894531 47.335938 C 72.429688 46.644531 73.078125 45.953125 73.832031 45.289062 C 74.585938 44.621094 75.4375 43.976562 76.359375 43.363281 C 76.472656 43.285156 76.589844 43.207031 76.707031 43.132812 C 76.824219 43.054688 76.941406 42.980469 77.0625 42.902344 C 77.183594 42.828125 77.304688 42.75 77.425781 42.675781 C 77.546875 42.601562 77.667969 42.527344 77.789062 42.453125 C 77.914062 42.375 78.039062 42.300781 78.164062 42.226562 C 78.289062 42.152344 78.414062 42.078125 78.539062 42.003906 C 78.792969 41.851562 79.046875 41.703125 79.304688 41.554688 C 80.335938 40.953125 81.398438 40.351562 82.460938 39.722656 C 83.519531 39.09375 84.574219 38.441406 85.589844 37.742188 C 86.605469 37.046875 87.578125 36.304688 88.46875 35.511719 C 89.355469 34.71875 90.160156 33.875 90.832031 32.992188 C 91.167969 32.554688 91.46875 32.105469 91.734375 31.65625 C 92 31.207031 92.230469 30.757812 92.421875 30.3125 C 92.617188 29.867188 92.773438 29.429688 92.894531 29.011719 C 92.925781 28.902344 92.953125 28.800781 92.980469 28.695312 C 92.996094 28.644531 93.007812 28.59375 93.019531 28.542969 C 93.03125 28.492188 93.042969 28.441406 93.054688 28.390625 C 93.066406 28.339844 93.078125 28.289062 93.089844 28.238281 C 93.097656 28.1875 93.109375 28.140625 93.117188 28.089844 C 93.128906 28.039062 93.136719 27.992188 93.148438 27.941406 C 93.15625 27.894531 93.167969 27.847656 93.171875 27.796875 C 93.296875 27.03125 93.328125 26.355469 93.308594 25.804688 C 93.304688 25.667969 93.296875 25.539062 93.292969 25.417969 C 93.289062 25.355469 93.285156 25.296875 93.277344 25.238281 C 93.273438 25.183594 93.269531 25.128906 93.261719 25.074219 C 93.246094 24.863281 93.21875 24.683594 93.199219 24.539062 C 93.175781 24.394531 93.15625 24.285156 93.140625 24.210938 C 93.125 24.136719 93.117188 24.101562 93.117188 24.101562 C 93.117188 24.101562 93.113281 24.136719 93.109375 24.214844 " fill-opacity="1" fill-rule="nonzero"/></g></g></g><g fill="#ffffff" fill-opacity="1"><g transform="translate(135.367165, 60.018475)"><g><path d="M 7.808594 -5.160156 L 7.246094 -2.667969 L 6.738281 -5.160156 L 4.789062 -12.492188 L 1.140625 -12.492188 L 1.140625 0 L 3.542969 0 L 3.542969 -4.683594 L 3.246094 -10.808594 L 4.105469 -7.140625 L 5.964844 0 L 8.613281 0 L 10.4375 -7.019531 L 11.300781 -10.789062 L 11 -4.683594 L 11 0 L 13.421875 0 L 13.421875 -12.492188 L 9.71875 -12.492188 Z M 7.808594 -5.160156 "/></g></g></g><g fill="#ffffff" fill-opacity="1"><g transform="translate(149.928802, 60.018475)"><g><path d="M 5.507812 -4.578125 C 5.351562 -4.054688 5.160156 -3.421875 4.984375 -2.753906 C 4.789062 -3.421875 4.613281 -4.070312 4.4375 -4.597656 L 2.984375 -9.054688 L 0.261719 -9.054688 L 3.789062 0.457031 L 3.703125 0.703125 C 3.507812 1.246094 3.15625 1.472656 2.421875 1.472656 L 1.226562 1.472656 L 1.226562 3.578125 L 3.296875 3.578125 C 4.578125 3.578125 5.351562 3.191406 5.878906 1.613281 L 9.492188 -9.054688 L 6.859375 -9.054688 Z M 5.507812 -4.578125 "/></g></g></g><g fill="#ffffff" fill-opacity="1"><g transform="translate(159.683347, 60.018475)"><g><path d="M 9.964844 -12.492188 L 1.140625 -12.492188 L 1.140625 0 L 3.738281 0 L 3.738281 -5.175781 L 9.175781 -5.175781 L 9.175781 -7.492188 L 3.738281 -7.492188 L 3.738281 -10.175781 L 9.964844 -10.175781 Z M 9.964844 -12.492188 "/></g></g></g><g fill="#ffffff" fill-opacity="1"><g transform="translate(169.736142, 60.018475)"><g><path d="M 9.070312 0 C 8.808594 -0.457031 8.71875 -1.050781 8.71875 -1.894531 L 8.71875 -5.894531 C 8.71875 -8.125 7.402344 -9.265625 4.808594 -9.265625 C 2.367188 -9.265625 1.121094 -8.332031 0.949219 -6.351562 L 3.210938 -6.316406 C 3.332031 -7.160156 3.808594 -7.507812 4.824219 -7.507812 C 5.808594 -7.507812 6.351562 -7.195312 6.351562 -6.527344 L 6.351562 -5.859375 L 3.191406 -5.226562 C 1.367188 -4.859375 0.4375 -3.929688 0.4375 -2.492188 C 0.4375 -0.84375 1.667969 0.261719 3.578125 0.261719 C 4.773438 0.261719 5.753906 -0.175781 6.367188 -0.914062 C 6.421875 -0.597656 6.492188 -0.316406 6.5625 0 Z M 4.28125 -1.5625 C 3.367188 -1.5625 2.859375 -2 2.859375 -2.648438 C 2.859375 -3.246094 3.28125 -3.632812 4.035156 -3.789062 L 6.351562 -4.28125 L 6.351562 -3.613281 C 6.351562 -2.28125 5.457031 -1.5625 4.28125 -1.5625 Z M 4.28125 -1.5625 "/></g></g></g><g fill="#ffffff" fill-opacity="1"><g transform="translate(179.50823, 60.018475)"><g><path d="M 4.84375 0.332031 C 7.28125 0.332031 8.859375 -0.773438 8.859375 -2.683594 C 8.859375 -4.089844 8.019531 -4.914062 6.210938 -5.28125 L 4.261719 -5.683594 C 3.613281 -5.824219 3.246094 -6.125 3.246094 -6.597656 C 3.246094 -7.175781 3.773438 -7.5625 4.597656 -7.5625 C 5.527344 -7.5625 6.195312 -7.089844 6.316406 -6.296875 L 8.542969 -6.386719 C 8.316406 -8.160156 6.824219 -9.28125 4.632812 -9.28125 C 2.402344 -9.28125 0.949219 -8.125 0.949219 -6.296875 C 0.949219 -4.914062 1.808594 -4 3.578125 -3.648438 L 5.367188 -3.296875 C 6.195312 -3.140625 6.5625 -2.878906 6.5625 -2.386719 C 6.5625 -1.703125 5.859375 -1.386719 4.929688 -1.386719 C 3.753906 -1.386719 3.140625 -1.894531 3 -2.789062 L 0.738281 -2.703125 C 0.964844 -0.773438 2.367188 0.332031 4.84375 0.332031 Z M 4.84375 0.332031 "/></g></g></g><g fill="#ffffff" fill-opacity="1"><g transform="translate(188.982068, 60.018475)"><g><path d="M 6.125 -9.28125 C 4.964844 -9.28125 4.125 -8.808594 3.527344 -7.84375 L 3.527344 -12.492188 L 1.050781 -12.492188 L 1.050781 0 L 3.527344 0 L 3.527344 -4.84375 C 3.527344 -6.195312 4.246094 -7.054688 5.296875 -7.054688 C 6.175781 -7.054688 6.613281 -6.457031 6.613281 -5.507812 L 6.613281 0 L 9.089844 0 L 9.089844 -6.070312 C 9.089844 -8.035156 8 -9.28125 6.125 -9.28125 Z M 6.125 -9.28125 "/></g></g></g><g fill="#ffffff" fill-opacity="1"><g transform="translate(199.122578, 60.018475)"><g><path d="M 3.542969 -10.246094 L 3.542969 -12.492188 L 1.070312 -12.492188 L 1.070312 -10.246094 Z M 3.527344 0 L 3.527344 -9.054688 L 1.050781 -9.054688 L 1.050781 0 Z M 3.527344 0 "/></g></g></g><g fill="#ffffff" fill-opacity="1"><g transform="translate(203.701602, 60.018475)"><g><path d="M 5.195312 0.296875 C 7.914062 0.296875 9.824219 -1.753906 9.824219 -4.492188 C 9.824219 -7.230469 7.914062 -9.28125 5.195312 -9.28125 C 2.472656 -9.28125 0.5625 -7.230469 0.5625 -4.492188 C 0.5625 -1.753906 2.472656 0.296875 5.195312 0.296875 Z M 5.195312 -1.632812 C 3.808594 -1.632812 2.949219 -2.753906 2.949219 -4.492188 C 2.949219 -6.230469 3.808594 -7.351562 5.195312 -7.351562 C 6.578125 -7.351562 7.4375 -6.230469 7.4375 -4.492188 C 7.4375 -2.753906 6.578125 -1.632812 5.195312 -1.632812 Z M 5.195312 -1.632812 "/></g></g></g><g fill="#ffffff" fill-opacity="1"><g transform="translate(214.087731, 60.018475)"><g><path d="M 6.125 -9.28125 C 4.964844 -9.28125 4.105469 -8.808594 3.507812 -7.824219 L 3.472656 -9.054688 L 1.050781 -9.054688 L 1.050781 0 L 3.527344 0 L 3.527344 -4.84375 C 3.527344 -6.195312 4.246094 -7.054688 5.296875 -7.054688 C 6.175781 -7.054688 6.613281 -6.457031 6.613281 -5.507812 L 6.613281 0 L 9.089844 0 L 9.089844 -6.070312 C 9.089844 -8.035156 8 -9.28125 6.125 -9.28125 Z M 6.125 -9.28125 "/></g></g></g><g fill="#ffffff" fill-opacity="1"><g transform="translate(224.228241, 60.018475)"><g><path d="M 4.914062 0.28125 C 7.457031 0.28125 8.949219 -1.15625 8.949219 -3.578125 L 8.949219 -12.492188 L 6.351562 -12.492188 L 6.351562 -3.542969 C 6.351562 -2.457031 5.878906 -1.964844 4.859375 -1.964844 C 3.84375 -1.964844 3.332031 -2.457031 3.332031 -3.542969 L 3.332031 -4.683594 L 0.878906 -4.683594 L 0.878906 -3.578125 C 0.878906 -1.15625 2.367188 0.28125 4.914062 0.28125 Z M 4.914062 0.28125 "/></g></g></g><g fill="#ffffff" fill-opacity="1"><g transform="translate(234.316122, 60.018475)"><g><path d="M 6.613281 -4.210938 C 6.613281 -2.859375 5.894531 -2 4.84375 -2 C 3.964844 -2 3.527344 -2.597656 3.527344 -3.542969 L 3.527344 -9.054688 L 1.050781 -9.054688 L 1.050781 -2.984375 C 1.050781 -1.019531 2.140625 0.226562 4.019531 0.226562 C 5.175781 0.226562 6.035156 -0.246094 6.632812 -1.226562 L 6.667969 0 L 9.089844 0 L 9.089844 -9.054688 L 6.613281 -9.054688 Z M 6.613281 -4.210938 "/></g></g></g><g fill="#ffffff" fill-opacity="1"><g transform="translate(244.456632, 60.018475)"><g><path d="M 6.894531 -8.140625 C 6.28125 -8.894531 5.421875 -9.28125 4.261719 -9.28125 C 2.210938 -9.28125 0.5625 -7.527344 0.5625 -4.5625 C 0.5625 -1.648438 2.175781 0.296875 4.457031 0.296875 C 5.578125 0.296875 6.472656 -0.175781 7.089844 -1.121094 L 7.175781 0 L 9.367188 0 L 9.367188 -12.492188 L 6.894531 -12.492188 Z M 4.984375 -1.878906 C 3.789062 -1.878906 2.949219 -2.894531 2.949219 -4.5625 C 2.949219 -6.210938 3.789062 -7.230469 4.984375 -7.230469 C 6.175781 -7.230469 7.019531 -6.195312 7.019531 -4.5625 C 7.019531 -2.929688 6.175781 -1.878906 4.984375 -1.878906 Z M 4.984375 -1.878906 "/></g></g></g><g fill="#ffffff" fill-opacity="1"><g transform="translate(254.877848, 60.018475)"><g><path d="M 7.089844 -7.929688 C 6.492188 -8.824219 5.597656 -9.28125 4.4375 -9.28125 C 2.210938 -9.28125 0.5625 -7.578125 0.5625 -4.703125 C 0.5625 -1.894531 2.175781 0 4.4375 0 C 5.457031 0 6.28125 -0.367188 6.894531 -1.105469 L 6.894531 0.140625 C 6.894531 1.28125 6.4375 1.949219 5 1.949219 C 3.929688 1.949219 3.316406 1.578125 3.175781 0.738281 L 0.894531 0.738281 C 1.070312 2.632812 2.457031 3.789062 5.054688 3.789062 C 7.773438 3.789062 9.367188 2.492188 9.367188 0.105469 L 9.367188 -9.054688 L 7.175781 -9.054688 Z M 4.984375 -2.105469 C 3.789062 -2.105469 2.949219 -3.089844 2.949219 -4.703125 C 2.949219 -6.296875 3.789062 -7.296875 4.984375 -7.296875 C 6.175781 -7.296875 7.019531 -6.28125 7.019531 -4.703125 C 7.019531 -3.121094 6.175781 -2.105469 4.984375 -2.105469 Z M 4.984375 -2.105469 "/></g></g></g><g fill="#ffffff" fill-opacity="1"><g transform="translate(265.299064, 60.018475)"><g><path d="M 9.667969 -4.210938 C 9.667969 -7.386719 7.703125 -9.28125 5.019531 -9.28125 C 2.246094 -9.28125 0.5625 -7.210938 0.5625 -4.5625 C 0.5625 -1.789062 2.28125 0.296875 5.28125 0.296875 C 7.316406 0.296875 8.824219 -0.648438 9.4375 -2.613281 L 6.984375 -2.789062 C 6.683594 -2 6.089844 -1.613281 5.226562 -1.613281 C 4 -1.613281 3.210938 -2.421875 3.105469 -3.789062 L 9.667969 -3.789062 Z M 5.105469 -7.472656 C 6.230469 -7.472656 6.964844 -6.738281 7.105469 -5.472656 L 3.089844 -5.472656 C 3.210938 -6.71875 3.984375 -7.472656 5.105469 -7.472656 Z M 5.105469 -7.472656 "/></g></g></g></svg>