<svg xmlns="http://www.w3.org/2000/svg" xmlns:xlink="http://www.w3.org/1999/xlink" width="500" zoomAndPan="magnify" viewBox="0 0 375 149.999998" height="200" preserveAspectRatio="xMidYMid meet" version="1.0"><defs><g/><clipPath id="268dd357fe"><path d="M 64.398438 78 L 89.359375 78 L 89.359375 83.585938 L 64.398438 83.585938 Z M 64.398438 78 " clip-rule="nonzero"/></clipPath><clipPath id="8703b5c668"><path d="M 39.976562 51.183594 L 81.265625 51.183594 L 81.265625 82.335938 L 39.976562 82.335938 Z M 39.976562 51.183594 " clip-rule="nonzero"/></clipPath><clipPath id="d527269c20"><path d="M 68 36 L 69 36 L 69 39 L 68 39 Z M 68 36 " clip-rule="nonzero"/></clipPath><clipPath id="329f4f80fd"><path d="M 80.082031 23.933594 L 115 58.855469 L 103.128906 70.730469 L 68.207031 35.808594 Z M 80.082031 23.933594 " clip-rule="nonzero"/></clipPath><clipPath id="66aacb8a20"><path d="M 69 34 L 108 34 L 108 67 L 69 67 Z M 69 34 " clip-rule="nonzero"/></clipPath><clipPath id="3d269f64f6"><path d="M 80.082031 23.933594 L 115 58.855469 L 103.128906 70.730469 L 68.207031 35.808594 Z M 80.082031 23.933594 " clip-rule="nonzero"/></clipPath><clipPath id="8e6f98a8c9"><path d="M 80.082031 23.933594 L 115 58.855469 L 103.128906 70.730469 L 68.207031 35.808594 Z M 80.082031 23.933594 " clip-rule="nonzero"/></clipPath><clipPath id="4f6914e4de"><path d="M 103 70 L 106 70 L 106 71 L 103 71 Z M 103 70 " clip-rule="nonzero"/></clipPath><clipPath id="c1285641ea"><path d="M 117.679688 82.429688 L 82.757812 117.347656 L 70.886719 105.476562 L 105.808594 70.554688 Z M 117.679688 82.429688 " clip-rule="nonzero"/></clipPath><clipPath id="99011ecfa1"><path d="M 75 71 L 108 71 L 108 111 L 75 111 Z M 75 71 " clip-rule="nonzero"/></clipPath><clipPath id="c3a74b85e0"><path d="M 117.679688 82.429688 L 82.757812 117.347656 L 70.886719 105.476562 L 105.808594 70.554688 Z M 117.679688 82.429688 " clip-rule="nonzero"/></clipPath><clipPath id="969201f38b"><path d="M 117.679688 82.429688 L 82.757812 117.347656 L 70.886719 105.476562 L 105.808594 70.554688 Z M 117.679688 82.429688 " clip-rule="nonzero"/></clipPath><clipPath id="7de61acd0c"><path d="M 64 106 L 65 106 L 65 109 L 64 109 Z M 64 106 " clip-rule="nonzero"/></clipPath><clipPath id="1e1e4658fd"><path d="M 52.882812 121.074219 L 17.960938 86.152344 L 29.832031 74.28125 L 64.753906 109.203125 Z M 52.882812 121.074219 " clip-rule="nonzero"/></clipPath><clipPath id="ac4d618836"><path d="M 25 78 L 64 78 L 64 111 L 25 111 Z M 25 78 " clip-rule="nonzero"/></clipPath><clipPath id="7ec030b61a"><path d="M 52.882812 121.074219 L 17.960938 86.152344 L 29.832031 74.28125 L 64.753906 109.203125 Z M 52.882812 121.074219 " clip-rule="nonzero"/></clipPath><clipPath id="7818d0ab9e"><path d="M 52.882812 121.074219 L 17.960938 86.152344 L 29.832031 74.28125 L 64.753906 109.203125 Z M 52.882812 121.074219 " clip-rule="nonzero"/></clipPath><clipPath id="0c28945c9e"><path d="M 31 71 L 34 71 L 34 72 L 31 72 Z M 31 71 " clip-rule="nonzero"/></clipPath><clipPath id="6bb32a8751"><path d="M 18.910156 59.902344 L 53.828125 24.980469 L 65.703125 36.855469 L 30.78125 71.777344 Z M 18.910156 59.902344 " clip-rule="nonzero"/></clipPath><clipPath id="c5c3c8a266"><path d="M 29 32 L 62 32 L 62 71 L 29 71 Z M 29 32 " clip-rule="nonzero"/></clipPath><clipPath id="f947227473"><path d="M 18.910156 59.902344 L 53.828125 24.980469 L 65.703125 36.855469 L 30.78125 71.777344 Z M 18.910156 59.902344 " clip-rule="nonzero"/></clipPath><clipPath id="af2f9eff14"><path d="M 18.910156 59.902344 L 53.828125 24.980469 L 65.703125 36.855469 L 30.78125 71.777344 Z M 18.910156 59.902344 " clip-rule="nonzero"/></clipPath></defs><g clip-path="url(#268dd357fe)"><path fill="#869ba6" d="M 64.554688 81.914062 C 64.554688 82.835938 65.339844 83.585938 66.304688 83.585938 L 87.609375 83.585938 C 88.578125 83.585938 89.359375 82.835938 89.359375 81.914062 C 89.359375 81.03125 88.644531 80.304688 87.734375 80.246094 C 87.742188 80.207031 87.746094 80.171875 87.746094 80.132812 L 87.746094 78.863281 C 87.746094 78.417969 87.371094 78.058594 86.90625 78.058594 L 67.007812 78.058594 C 66.542969 78.058594 66.167969 78.417969 66.167969 78.863281 L 66.167969 80.132812 C 66.167969 80.171875 66.175781 80.207031 66.179688 80.246094 C 65.273438 80.304688 64.554688 81.03125 64.554688 81.914062 " fill-opacity="1" fill-rule="nonzero"/></g><g clip-path="url(#8703b5c668)"><path fill="#869ba6" d="M 71.808594 54.65625 L 60.472656 61.351562 C 59.839844 61.707031 59.027344 61.503906 58.652344 60.898438 L 57.972656 59.796875 C 57.601562 59.191406 57.808594 58.414062 58.441406 58.054688 L 69.78125 51.359375 C 70.410156 51.003906 71.226562 51.203125 71.597656 51.808594 L 72.277344 52.914062 C 72.652344 53.519531 72.441406 54.296875 71.808594 54.65625 Z M 80.527344 68.699219 L 69.1875 75.394531 C 68.558594 75.75 67.742188 75.550781 67.371094 74.945312 L 66.691406 73.84375 C 66.316406 73.238281 66.527344 72.457031 67.160156 72.101562 L 78.496094 65.40625 C 79.128906 65.046875 79.941406 65.25 80.316406 65.855469 L 80.996094 66.957031 C 81.367188 67.5625 81.160156 68.34375 80.527344 68.699219 Z M 40.496094 77.902344 C 41.183594 76.71875 42.234375 75.898438 43.484375 75.304688 C 46.851562 73.710938 60.101562 66.417969 61.460938 66.230469 C 61.699219 66.199219 61.839844 66.246094 61.964844 66.457031 C 62.390625 67.171875 62.832031 67.878906 63.285156 68.574219 C 63.421875 68.785156 63.398438 68.925781 63.25 69.109375 C 62.558594 69.996094 50.214844 78.796875 46.949219 80.980469 C 46.035156 81.589844 45.03125 82 43.921875 82.191406 C 43.574219 82.199219 43.21875 82.226562 42.867188 82.210938 C 41.472656 82.15625 40.445312 81.480469 40.085938 80.351562 C 39.8125 79.484375 40.050781 78.667969 40.496094 77.902344 Z M 66.664062 70.945312 C 70.125 68.984375 74.230469 66.359375 77.691406 64.398438 C 75.890625 61.5 74.125 58.652344 72.328125 55.757812 C 68.878906 57.714844 64.777344 60.339844 61.300781 62.3125 C 63.089844 65.191406 64.867188 68.054688 66.664062 70.945312 " fill-opacity="1" fill-rule="nonzero"/></g><g clip-path="url(#d527269c20)"><g clip-path="url(#329f4f80fd)"><g fill="#000000" fill-opacity="1"><g transform="translate(66.63581, 37.379872)"><g><path d="M 1.390625 0.234375 C 0.992188 0.628906 0.671875 0.703125 0.421875 0.453125 C 0.296875 0.328125 0.25 0.179688 0.28125 0.015625 C 0.320312 -0.140625 0.441406 -0.316406 0.640625 -0.515625 C 0.828125 -0.703125 1 -0.8125 1.15625 -0.84375 C 1.320312 -0.882812 1.46875 -0.84375 1.59375 -0.71875 C 1.71875 -0.59375 1.757812 -0.445312 1.71875 -0.28125 C 1.6875 -0.125 1.578125 0.046875 1.390625 0.234375 Z M 1.234375 0.078125 C 1.410156 -0.0976562 1.519531 -0.242188 1.5625 -0.359375 C 1.613281 -0.484375 1.601562 -0.582031 1.53125 -0.65625 C 1.457031 -0.726562 1.363281 -0.742188 1.25 -0.703125 C 1.132812 -0.660156 0.984375 -0.546875 0.796875 -0.359375 C 0.597656 -0.160156 0.476562 -0.0078125 0.4375 0.09375 C 0.40625 0.207031 0.425781 0.300781 0.5 0.375 C 0.570312 0.445312 0.664062 0.460938 0.78125 0.421875 C 0.894531 0.378906 1.046875 0.265625 1.234375 0.078125 Z M 1.234375 0.078125 "/></g></g></g></g></g><g clip-path="url(#66aacb8a20)"><g clip-path="url(#3d269f64f6)"><g clip-path="url(#8e6f98a8c9)"><path fill="#800080" d="M 107.554688 66.109375 C 107.457031 66.101562 107.308594 66.085938 107.117188 66.066406 C 107.019531 66.058594 106.914062 66.046875 106.796875 66.03125 C 106.738281 66.023438 106.675781 66.015625 106.613281 66.003906 C 106.546875 65.996094 106.480469 65.984375 106.414062 65.976562 C 106.34375 65.964844 106.273438 65.953125 106.199219 65.941406 C 106.125 65.929688 106.050781 65.921875 105.972656 65.90625 C 105.816406 65.878906 105.648438 65.847656 105.472656 65.816406 C 104.777344 65.675781 103.945312 65.464844 103.039062 65.140625 C 102.582031 64.96875 102.109375 64.777344 101.625 64.546875 C 101.140625 64.3125 100.648438 64.042969 100.152344 63.738281 C 99.15625 63.121094 98.152344 62.351562 97.179688 61.429688 C 96.207031 60.511719 95.265625 59.445312 94.359375 58.277344 C 93.449219 57.109375 92.582031 55.835938 91.730469 54.507812 C 90.949219 53.292969 90.191406 52.03125 89.429688 50.75 L 90.558594 49.621094 C 92.660156 51.125 95.617188 50.925781 97.515625 49.027344 C 99.625 46.914062 99.640625 43.492188 97.542969 41.394531 C 96.539062 40.390625 95.203125 39.835938 93.777344 39.828125 C 92.355469 39.824219 91.007812 40.367188 89.980469 41.359375 C 89.628906 41.699219 89.617188 42.257812 89.953125 42.605469 C 90.289062 42.949219 90.847656 42.960938 91.199219 42.621094 C 92.621094 41.246094 94.90625 41.257812 96.292969 42.648438 C 97.703125 44.058594 97.695312 46.363281 96.273438 47.785156 C 94.851562 49.207031 92.546875 49.214844 91.132812 47.800781 C 90.792969 47.457031 90.234375 47.460938 89.890625 47.808594 C 89.878906 47.820312 89.867188 47.832031 89.855469 47.84375 C 89.851562 47.851562 89.84375 47.855469 89.839844 47.859375 L 88.503906 49.195312 C 87.90625 48.191406 87.304688 47.1875 86.683594 46.195312 C 85.816406 44.8125 84.921875 43.460938 83.945312 42.203125 C 82.972656 40.945312 81.933594 39.792969 80.84375 38.796875 C 79.757812 37.800781 78.617188 36.972656 77.492188 36.335938 C 77.421875 36.296875 77.351562 36.257812 77.28125 36.21875 C 77.210938 36.179688 77.140625 36.140625 77.070312 36.105469 C 76.929688 36.035156 76.789062 35.964844 76.648438 35.894531 C 76.367188 35.761719 76.09375 35.632812 75.820312 35.527344 C 75.753906 35.5 75.683594 35.472656 75.617188 35.445312 C 75.550781 35.417969 75.480469 35.394531 75.414062 35.367188 C 75.277344 35.320312 75.148438 35.273438 75.015625 35.226562 C 74.75 35.144531 74.492188 35.058594 74.238281 34.996094 C 73.734375 34.859375 73.25 34.777344 72.808594 34.707031 C 72.695312 34.695312 72.585938 34.679688 72.480469 34.667969 C 72.425781 34.664062 72.375 34.65625 72.320312 34.652344 C 72.296875 34.648438 72.269531 34.644531 72.246094 34.640625 C 72.21875 34.640625 72.191406 34.636719 72.167969 34.636719 C 72.066406 34.628906 71.964844 34.625 71.867188 34.617188 C 71.820312 34.613281 71.769531 34.613281 71.722656 34.609375 C 71.699219 34.605469 71.675781 34.605469 71.652344 34.605469 C 71.628906 34.605469 71.605469 34.605469 71.582031 34.605469 C 71.398438 34.601562 71.222656 34.597656 71.058594 34.597656 C 70.894531 34.601562 70.742188 34.609375 70.597656 34.613281 C 70.5625 34.617188 70.527344 34.617188 70.496094 34.617188 C 70.460938 34.621094 70.425781 34.625 70.394531 34.625 C 70.328125 34.632812 70.265625 34.636719 70.203125 34.640625 C 70.085938 34.652344 69.976562 34.664062 69.878906 34.671875 C 69.492188 34.726562 69.285156 34.761719 69.285156 34.761719 C 69.285156 34.761719 69.492188 34.789062 69.878906 34.835938 C 69.972656 34.851562 70.078125 34.871094 70.195312 34.890625 C 70.253906 34.898438 70.3125 34.910156 70.378906 34.917969 C 70.410156 34.925781 70.441406 34.929688 70.472656 34.933594 C 70.507812 34.941406 70.539062 34.949219 70.574219 34.957031 C 70.710938 34.984375 70.855469 35.011719 71.011719 35.042969 C 71.164062 35.082031 71.328125 35.121094 71.5 35.164062 C 71.519531 35.167969 71.542969 35.171875 71.5625 35.179688 C 71.585938 35.183594 71.605469 35.191406 71.628906 35.199219 C 71.671875 35.210938 71.714844 35.222656 71.761719 35.234375 C 71.851562 35.261719 71.941406 35.289062 72.035156 35.316406 C 72.058594 35.320312 72.082031 35.328125 72.105469 35.335938 C 72.128906 35.34375 72.152344 35.351562 72.175781 35.359375 C 72.222656 35.375 72.269531 35.390625 72.316406 35.40625 C 72.414062 35.4375 72.511719 35.46875 72.609375 35.503906 C 72.710938 35.539062 72.808594 35.578125 72.914062 35.617188 C 73.015625 35.65625 73.117188 35.691406 73.222656 35.738281 C 73.324219 35.78125 73.433594 35.828125 73.539062 35.875 C 73.59375 35.894531 73.644531 35.921875 73.699219 35.945312 C 73.753906 35.972656 73.808594 35.996094 73.863281 36.023438 C 74.082031 36.121094 74.300781 36.238281 74.527344 36.355469 C 74.636719 36.417969 74.75 36.480469 74.863281 36.542969 C 74.917969 36.578125 74.976562 36.605469 75.035156 36.640625 C 75.089844 36.675781 75.148438 36.710938 75.203125 36.746094 C 75.433594 36.882812 75.660156 37.039062 75.894531 37.195312 C 76.007812 37.273438 76.125 37.355469 76.238281 37.441406 C 76.300781 37.480469 76.355469 37.527344 76.414062 37.570312 C 76.472656 37.613281 76.527344 37.65625 76.585938 37.703125 C 77.511719 38.417969 78.441406 39.285156 79.332031 40.296875 C 80.222656 41.304688 81.085938 42.445312 81.910156 43.679688 C 82.015625 43.832031 82.117188 43.988281 82.21875 44.144531 C 82.320312 44.300781 82.421875 44.460938 82.523438 44.621094 C 82.625 44.78125 82.730469 44.945312 82.832031 45.109375 C 82.929688 45.273438 83.03125 45.433594 83.128906 45.597656 C 83.230469 45.761719 83.332031 45.929688 83.429688 46.097656 C 83.53125 46.261719 83.632812 46.433594 83.730469 46.601562 C 83.933594 46.941406 84.132812 47.28125 84.332031 47.628906 C 85.132812 49.007812 85.941406 50.429688 86.78125 51.851562 C 87.625 53.269531 88.5 54.683594 89.4375 56.042969 C 90.371094 57.402344 91.363281 58.707031 92.425781 59.894531 C 93.484375 61.085938 94.617188 62.160156 95.796875 63.0625 C 96.386719 63.511719 96.984375 63.914062 97.585938 64.273438 C 98.1875 64.628906 98.792969 64.9375 99.386719 65.195312 C 99.980469 65.453125 100.566406 65.660156 101.132812 65.828125 C 101.273438 65.867188 101.414062 65.902344 101.550781 65.941406 C 101.621094 65.960938 101.691406 65.976562 101.757812 65.992188 C 101.828125 66.007812 101.894531 66.023438 101.964844 66.039062 C 102.03125 66.054688 102.097656 66.070312 102.164062 66.085938 C 102.230469 66.101562 102.296875 66.113281 102.363281 66.125 C 102.429688 66.136719 102.496094 66.152344 102.5625 66.164062 C 102.625 66.175781 102.691406 66.1875 102.753906 66.199219 C 103.785156 66.363281 104.6875 66.40625 105.421875 66.382812 C 105.609375 66.375 105.78125 66.367188 105.945312 66.359375 C 106.027344 66.355469 106.105469 66.347656 106.183594 66.339844 C 106.257812 66.332031 106.332031 66.324219 106.402344 66.320312 C 106.6875 66.296875 106.925781 66.261719 107.117188 66.230469 C 107.3125 66.203125 107.460938 66.171875 107.558594 66.15625 C 107.65625 66.136719 107.707031 66.125 107.707031 66.125 C 107.707031 66.125 107.65625 66.121094 107.554688 66.109375 " fill-opacity="1" fill-rule="nonzero"/></g></g></g><g clip-path="url(#4f6914e4de)"><g clip-path="url(#c1285641ea)"><g fill="#000000" fill-opacity="1"><g transform="translate(104.235953, 68.983573)"><g><path d="M -0.234375 1.390625 C -0.628906 0.992188 -0.703125 0.671875 -0.453125 0.421875 C -0.328125 0.296875 -0.179688 0.25 -0.015625 0.28125 C 0.140625 0.320312 0.316406 0.441406 0.515625 0.640625 C 0.703125 0.828125 0.8125 1 0.84375 1.15625 C 0.882812 1.320312 0.84375 1.46875 0.71875 1.59375 C 0.59375 1.71875 0.445312 1.757812 0.28125 1.71875 C 0.125 1.6875 -0.046875 1.578125 -0.234375 1.390625 Z M -0.078125 1.234375 C 0.0976562 1.410156 0.242188 1.519531 0.359375 1.5625 C 0.484375 1.613281 0.582031 1.601562 0.65625 1.53125 C 0.726562 1.457031 0.742188 1.363281 0.703125 1.25 C 0.660156 1.132812 0.546875 0.984375 0.359375 0.796875 C 0.160156 0.597656 0.0078125 0.476562 -0.09375 0.4375 C -0.207031 0.40625 -0.300781 0.425781 -0.375 0.5 C -0.445312 0.570312 -0.460938 0.664062 -0.421875 0.78125 C -0.378906 0.894531 -0.265625 1.046875 -0.078125 1.234375 Z M -0.078125 1.234375 "/></g></g></g></g></g><g clip-path="url(#99011ecfa1)"><g clip-path="url(#c3a74b85e0)"><g clip-path="url(#969201f38b)"><path fill="#800080" d="M 75.503906 109.902344 C 75.511719 109.804688 75.527344 109.65625 75.546875 109.464844 C 75.558594 109.367188 75.570312 109.261719 75.585938 109.144531 C 75.59375 109.085938 75.601562 109.023438 75.609375 108.960938 C 75.621094 108.894531 75.628906 108.828125 75.640625 108.761719 C 75.652344 108.691406 75.660156 108.621094 75.671875 108.546875 C 75.683594 108.472656 75.695312 108.398438 75.710938 108.320312 C 75.738281 108.164062 75.765625 107.996094 75.800781 107.824219 C 75.9375 107.125 76.148438 106.292969 76.476562 105.386719 C 76.644531 104.929688 76.839844 104.457031 77.070312 103.972656 C 77.304688 103.488281 77.570312 102.996094 77.878906 102.5 C 78.492188 101.503906 79.265625 100.5 80.1875 99.527344 C 81.105469 98.554688 82.167969 97.613281 83.335938 96.707031 C 84.503906 95.796875 85.777344 94.929688 87.105469 94.078125 C 88.320312 93.296875 89.585938 92.539062 90.863281 91.777344 L 91.992188 92.90625 C 90.492188 95.007812 90.691406 97.964844 92.589844 99.863281 C 94.703125 101.976562 98.125 101.988281 100.21875 99.890625 C 101.222656 98.886719 101.78125 97.550781 101.785156 96.125 C 101.792969 94.703125 101.25 93.355469 100.257812 92.328125 C 99.917969 91.976562 99.359375 91.964844 99.011719 92.300781 C 98.664062 92.636719 98.65625 93.195312 98.996094 93.546875 C 100.367188 94.96875 100.355469 97.253906 98.96875 98.640625 C 97.558594 100.050781 95.253906 100.042969 93.832031 98.621094 C 92.410156 97.199219 92.402344 94.894531 93.8125 93.480469 C 94.15625 93.140625 94.152344 92.582031 93.808594 92.238281 C 93.796875 92.226562 93.785156 92.214844 93.769531 92.203125 C 93.765625 92.199219 93.761719 92.191406 93.757812 92.1875 L 92.421875 90.851562 L 92.417969 90.851562 C 93.425781 90.253906 94.429688 89.652344 95.417969 89.03125 C 96.800781 88.164062 98.152344 87.269531 99.414062 86.292969 C 100.671875 85.320312 101.824219 84.28125 102.816406 83.191406 C 103.8125 82.105469 104.644531 80.964844 105.28125 79.839844 C 105.320312 79.769531 105.359375 79.699219 105.398438 79.628906 C 105.433594 79.558594 105.476562 79.488281 105.511719 79.417969 C 105.582031 79.277344 105.652344 79.136719 105.722656 78.996094 C 105.851562 78.714844 105.980469 78.445312 106.089844 78.167969 C 106.117188 78.101562 106.144531 78.03125 106.171875 77.964844 C 106.199219 77.898438 106.222656 77.828125 106.246094 77.761719 C 106.296875 77.628906 106.34375 77.496094 106.390625 77.363281 C 106.472656 77.097656 106.558594 76.839844 106.617188 76.585938 C 106.757812 76.082031 106.839844 75.597656 106.910156 75.15625 C 106.921875 75.042969 106.933594 74.933594 106.945312 74.828125 C 106.953125 74.773438 106.960938 74.722656 106.964844 74.667969 C 106.96875 74.644531 106.96875 74.617188 106.972656 74.59375 C 106.976562 74.566406 106.976562 74.539062 106.980469 74.515625 C 106.984375 74.414062 106.992188 74.3125 107 74.214844 C 107 74.167969 107.003906 74.117188 107.007812 74.070312 C 107.007812 74.046875 107.011719 74.023438 107.011719 74 C 107.011719 73.976562 107.011719 73.953125 107.011719 73.929688 C 107.015625 73.746094 107.015625 73.570312 107.019531 73.40625 C 107.011719 73.242188 107.007812 73.089844 107.003906 72.949219 C 107 72.910156 107 72.875 106.996094 72.84375 C 106.996094 72.808594 106.992188 72.773438 106.988281 72.742188 C 106.984375 72.675781 106.980469 72.613281 106.972656 72.550781 C 106.960938 72.433594 106.953125 72.324219 106.941406 72.226562 C 106.886719 71.839844 106.855469 71.632812 106.855469 71.632812 C 106.855469 71.632812 106.824219 71.839844 106.777344 72.226562 C 106.761719 72.320312 106.746094 72.425781 106.726562 72.542969 C 106.71875 72.601562 106.707031 72.664062 106.695312 72.726562 C 106.691406 72.757812 106.6875 72.789062 106.679688 72.820312 C 106.675781 72.855469 106.667969 72.886719 106.660156 72.921875 C 106.632812 73.058594 106.601562 73.203125 106.570312 73.359375 C 106.535156 73.511719 106.496094 73.675781 106.453125 73.847656 C 106.449219 73.867188 106.441406 73.890625 106.4375 73.910156 C 106.429688 73.933594 106.425781 73.953125 106.417969 73.976562 C 106.40625 74.019531 106.394531 74.0625 106.378906 74.109375 C 106.355469 74.199219 106.328125 74.289062 106.300781 74.382812 C 106.292969 74.40625 106.289062 74.429688 106.28125 74.453125 C 106.273438 74.476562 106.265625 74.5 106.257812 74.523438 C 106.242188 74.570312 106.226562 74.617188 106.210938 74.664062 C 106.179688 74.761719 106.144531 74.859375 106.113281 74.957031 C 106.074219 75.058594 106.035156 75.15625 106 75.261719 C 105.960938 75.363281 105.921875 75.464844 105.875 75.570312 C 105.832031 75.675781 105.789062 75.78125 105.742188 75.886719 C 105.722656 75.941406 105.695312 75.996094 105.671875 76.046875 C 105.644531 76.101562 105.621094 76.15625 105.59375 76.210938 C 105.496094 76.429688 105.375 76.648438 105.261719 76.875 C 105.199219 76.984375 105.132812 77.097656 105.070312 77.210938 C 105.039062 77.265625 105.007812 77.324219 104.972656 77.382812 C 104.9375 77.4375 104.902344 77.496094 104.867188 77.550781 C 104.730469 77.78125 104.578125 78.007812 104.421875 78.242188 C 104.339844 78.355469 104.257812 78.472656 104.175781 78.585938 C 104.136719 78.648438 104.089844 78.703125 104.046875 78.761719 C 104.003906 78.820312 103.957031 78.875 103.914062 78.933594 C 103.199219 79.859375 102.328125 80.789062 101.320312 81.679688 C 100.3125 82.570312 99.171875 83.433594 97.9375 84.257812 C 97.785156 84.363281 97.625 84.464844 97.472656 84.566406 C 97.3125 84.667969 97.152344 84.769531 96.996094 84.871094 C 96.832031 84.972656 96.667969 85.078125 96.507812 85.179688 C 96.34375 85.277344 96.179688 85.378906 96.019531 85.476562 C 95.851562 85.578125 95.6875 85.679688 95.519531 85.777344 C 95.351562 85.878906 95.183594 85.980469 95.015625 86.078125 C 94.675781 86.28125 94.332031 86.480469 93.988281 86.679688 C 92.609375 87.480469 91.183594 88.289062 89.765625 89.128906 C 88.347656 89.972656 86.933594 90.847656 85.574219 91.785156 C 84.214844 92.71875 82.910156 93.710938 81.71875 94.773438 C 80.53125 95.835938 79.453125 96.964844 78.554688 98.144531 C 78.105469 98.734375 77.699219 99.332031 77.34375 99.933594 C 76.988281 100.535156 76.679688 101.140625 76.421875 101.734375 C 76.164062 102.328125 75.953125 102.914062 75.789062 103.480469 C 75.75 103.621094 75.710938 103.761719 75.671875 103.898438 C 75.652344 103.96875 75.636719 104.039062 75.621094 104.105469 C 75.605469 104.175781 75.589844 104.242188 75.574219 104.3125 C 75.558594 104.378906 75.542969 104.445312 75.527344 104.511719 C 75.515625 104.578125 75.503906 104.644531 75.488281 104.710938 C 75.476562 104.777344 75.464844 104.84375 75.453125 104.910156 C 75.441406 104.972656 75.425781 105.039062 75.417969 105.101562 C 75.25 106.132812 75.210938 107.035156 75.234375 107.773438 C 75.242188 107.957031 75.25 108.128906 75.257812 108.292969 C 75.261719 108.375 75.269531 108.453125 75.277344 108.53125 C 75.28125 108.605469 75.289062 108.679688 75.296875 108.75 C 75.316406 109.035156 75.355469 109.273438 75.382812 109.464844 C 75.414062 109.660156 75.441406 109.808594 75.460938 109.90625 C 75.480469 110.003906 75.492188 110.054688 75.492188 110.054688 C 75.492188 110.054688 75.496094 110.003906 75.503906 109.902344 " fill-opacity="1" fill-rule="nonzero"/></g></g></g><g clip-path="url(#7de61acd0c)"><g clip-path="url(#1e1e4658fd)"><g fill="#000000" fill-opacity="1"><g transform="translate(66.326564, 107.630725)"><g><path d="M -1.390625 -0.234375 C -0.992188 -0.628906 -0.671875 -0.703125 -0.421875 -0.453125 C -0.296875 -0.328125 -0.25 -0.179688 -0.28125 -0.015625 C -0.320312 0.140625 -0.441406 0.316406 -0.640625 0.515625 C -0.828125 0.703125 -1 0.8125 -1.15625 0.84375 C -1.320312 0.882812 -1.46875 0.84375 -1.59375 0.71875 C -1.71875 0.59375 -1.757812 0.445312 -1.71875 0.28125 C -1.6875 0.125 -1.578125 -0.046875 -1.390625 -0.234375 Z M -1.234375 -0.078125 C -1.410156 0.0976562 -1.519531 0.242188 -1.5625 0.359375 C -1.613281 0.484375 -1.601562 0.582031 -1.53125 0.65625 C -1.457031 0.726562 -1.363281 0.742188 -1.25 0.703125 C -1.132812 0.660156 -0.984375 0.546875 -0.796875 0.359375 C -0.597656 0.160156 -0.476562 0.0078125 -0.4375 -0.09375 C -0.40625 -0.207031 -0.425781 -0.300781 -0.5 -0.375 C -0.570312 -0.445312 -0.664062 -0.460938 -0.78125 -0.421875 C -0.894531 -0.378906 -1.046875 -0.265625 -1.234375 -0.078125 Z M -1.234375 -0.078125 "/></g></g></g></g></g><g clip-path="url(#ac4d618836)"><g clip-path="url(#7ec030b61a)"><g clip-path="url(#7818d0ab9e)"><path fill="#800080" d="M 25.40625 78.898438 C 25.507812 78.910156 25.65625 78.921875 25.847656 78.941406 C 25.941406 78.953125 26.050781 78.964844 26.167969 78.980469 C 26.226562 78.988281 26.285156 78.996094 26.351562 79.003906 C 26.414062 79.015625 26.480469 79.023438 26.550781 79.035156 C 26.617188 79.046875 26.691406 79.054688 26.761719 79.066406 C 26.835938 79.078125 26.914062 79.089844 26.992188 79.105469 C 27.148438 79.132812 27.3125 79.160156 27.488281 79.195312 C 28.183594 79.332031 29.015625 79.542969 29.925781 79.871094 C 30.378906 80.039062 30.851562 80.234375 31.335938 80.464844 C 31.820312 80.699219 32.316406 80.96875 32.8125 81.273438 C 33.808594 81.886719 34.808594 82.660156 35.78125 83.582031 C 36.753906 84.5 37.699219 85.566406 38.605469 86.730469 C 39.511719 87.898438 40.382812 89.171875 41.234375 90.5 C 42.011719 91.714844 42.773438 92.980469 43.53125 94.257812 L 42.402344 95.386719 C 40.304688 93.886719 37.34375 94.085938 35.445312 95.984375 C 33.335938 98.097656 33.324219 101.519531 35.417969 103.613281 C 36.421875 104.617188 37.761719 105.175781 39.183594 105.179688 C 40.609375 105.1875 41.957031 104.644531 42.980469 103.652344 C 43.332031 103.3125 43.34375 102.753906 43.007812 102.40625 C 42.675781 102.058594 42.113281 102.050781 41.761719 102.390625 C 40.339844 103.761719 38.058594 103.75 36.667969 102.363281 C 35.257812 100.953125 35.265625 98.648438 36.6875 97.226562 C 38.109375 95.804688 40.414062 95.796875 41.828125 97.210938 C 42.171875 97.550781 42.726562 97.550781 43.074219 97.203125 C 43.085938 97.191406 43.097656 97.179688 43.109375 97.164062 C 43.113281 97.160156 43.117188 97.15625 43.121094 97.152344 L 44.457031 95.816406 C 45.054688 96.820312 45.660156 97.824219 46.277344 98.8125 C 47.144531 100.195312 48.039062 101.546875 49.015625 102.808594 C 49.988281 104.066406 51.027344 105.21875 52.117188 106.214844 C 53.203125 107.210938 54.34375 108.039062 55.472656 108.675781 C 55.542969 108.714844 55.613281 108.753906 55.683594 108.792969 C 55.753906 108.832031 55.820312 108.871094 55.894531 108.90625 C 56.035156 108.976562 56.175781 109.046875 56.3125 109.117188 C 56.59375 109.246094 56.867188 109.375 57.140625 109.484375 C 57.210938 109.511719 57.277344 109.539062 57.34375 109.566406 C 57.410156 109.59375 57.480469 109.617188 57.546875 109.640625 C 57.683594 109.691406 57.816406 109.738281 57.949219 109.785156 C 58.214844 109.867188 58.46875 109.953125 58.726562 110.011719 C 59.226562 110.152344 59.710938 110.234375 60.152344 110.304688 C 60.265625 110.316406 60.375 110.328125 60.480469 110.34375 C 60.535156 110.347656 60.585938 110.355469 60.640625 110.359375 C 60.667969 110.363281 60.691406 110.367188 60.71875 110.367188 C 60.742188 110.371094 60.769531 110.371094 60.796875 110.375 C 60.898438 110.378906 60.996094 110.386719 61.09375 110.394531 C 61.144531 110.394531 61.191406 110.398438 61.238281 110.402344 C 61.261719 110.402344 61.285156 110.40625 61.308594 110.40625 C 61.332031 110.40625 61.355469 110.40625 61.378906 110.40625 C 61.5625 110.410156 61.738281 110.414062 61.902344 110.414062 C 62.066406 110.40625 62.21875 110.402344 62.363281 110.398438 C 62.398438 110.394531 62.433594 110.394531 62.46875 110.390625 C 62.5 110.390625 62.535156 110.386719 62.570312 110.382812 C 62.632812 110.378906 62.699219 110.375 62.757812 110.367188 C 62.878906 110.355469 62.988281 110.347656 63.085938 110.335938 C 63.46875 110.28125 63.675781 110.25 63.675781 110.25 C 63.675781 110.25 63.46875 110.21875 63.085938 110.171875 C 62.988281 110.15625 62.882812 110.140625 62.765625 110.121094 C 62.707031 110.113281 62.648438 110.101562 62.585938 110.089844 C 62.554688 110.085938 62.519531 110.082031 62.488281 110.074219 C 62.457031 110.070312 62.421875 110.0625 62.386719 110.054688 C 62.253906 110.027344 62.105469 109.996094 61.953125 109.964844 C 61.796875 109.929688 61.636719 109.890625 61.464844 109.847656 C 61.441406 109.84375 61.421875 109.835938 61.398438 109.832031 C 61.378906 109.824219 61.355469 109.820312 61.332031 109.8125 C 61.289062 109.800781 61.246094 109.789062 61.203125 109.773438 C 61.113281 109.75 61.019531 109.722656 60.929688 109.695312 C 60.90625 109.6875 60.882812 109.683594 60.859375 109.675781 C 60.835938 109.667969 60.8125 109.660156 60.789062 109.652344 C 60.742188 109.636719 60.691406 109.621094 60.644531 109.605469 C 60.550781 109.574219 60.453125 109.539062 60.351562 109.507812 C 60.253906 109.46875 60.152344 109.433594 60.050781 109.394531 C 59.949219 109.355469 59.84375 109.316406 59.738281 109.273438 C 59.636719 109.226562 59.53125 109.183594 59.421875 109.136719 C 59.367188 109.117188 59.316406 109.089844 59.261719 109.066406 C 59.207031 109.039062 59.15625 109.015625 59.101562 108.988281 C 58.882812 108.890625 58.664062 108.769531 58.4375 108.65625 C 58.324219 108.59375 58.214844 108.527344 58.097656 108.464844 C 58.042969 108.433594 57.984375 108.402344 57.929688 108.367188 C 57.871094 108.332031 57.816406 108.296875 57.757812 108.261719 C 57.527344 108.125 57.300781 107.972656 57.070312 107.816406 C 56.953125 107.734375 56.839844 107.652344 56.722656 107.570312 C 56.664062 107.53125 56.605469 107.484375 56.550781 107.441406 C 56.492188 107.398438 56.433594 107.351562 56.375 107.308594 C 55.449219 106.59375 54.523438 105.722656 53.632812 104.714844 C 52.738281 103.707031 51.875 102.566406 51.050781 101.332031 C 50.945312 101.179688 50.847656 101.019531 50.742188 100.867188 C 50.640625 100.707031 50.539062 100.546875 50.4375 100.390625 C 50.335938 100.226562 50.234375 100.066406 50.128906 99.902344 C 50.03125 99.738281 49.933594 99.578125 49.832031 99.414062 C 49.730469 99.246094 49.632812 99.082031 49.53125 98.914062 C 49.429688 98.746094 49.332031 98.578125 49.230469 98.410156 C 49.03125 98.070312 48.828125 97.726562 48.628906 97.382812 C 47.828125 96.003906 47.019531 94.578125 46.179688 93.160156 C 45.335938 91.742188 44.460938 90.328125 43.527344 88.96875 C 42.59375 87.609375 41.601562 86.304688 40.539062 85.113281 C 39.476562 83.925781 38.34375 82.847656 37.164062 81.949219 C 36.578125 81.5 35.976562 81.09375 35.375 80.738281 C 34.773438 80.382812 34.167969 80.074219 33.574219 79.816406 C 32.980469 79.558594 32.394531 79.351562 31.832031 79.183594 C 31.6875 79.144531 31.546875 79.105469 31.410156 79.066406 C 31.34375 79.046875 31.273438 79.03125 31.203125 79.015625 C 31.136719 79 31.066406 78.984375 31 78.96875 C 30.929688 78.953125 30.863281 78.9375 30.796875 78.921875 C 30.730469 78.910156 30.664062 78.898438 30.597656 78.882812 C 30.53125 78.871094 30.464844 78.859375 30.402344 78.847656 C 30.335938 78.835938 30.273438 78.820312 30.207031 78.8125 C 29.179688 78.644531 28.273438 78.605469 27.539062 78.628906 C 27.355469 78.636719 27.179688 78.644531 27.015625 78.652344 C 26.9375 78.65625 26.855469 78.664062 26.78125 78.671875 C 26.703125 78.675781 26.632812 78.683594 26.558594 78.691406 C 26.277344 78.714844 26.039062 78.75 25.84375 78.777344 C 25.648438 78.808594 25.503906 78.835938 25.40625 78.855469 C 25.304688 78.875 25.253906 78.886719 25.253906 78.886719 C 25.253906 78.886719 25.304688 78.890625 25.40625 78.898438 " fill-opacity="1" fill-rule="nonzero"/></g></g></g><g clip-path="url(#0c28945c9e)"><g clip-path="url(#6bb32a8751)"><g fill="#000000" fill-opacity="1"><g transform="translate(32.353174, 73.348101)"><g><path d="M 0.234375 -1.390625 C 0.628906 -0.992188 0.703125 -0.671875 0.453125 -0.421875 C 0.328125 -0.296875 0.179688 -0.25 0.015625 -0.28125 C -0.140625 -0.320312 -0.316406 -0.441406 -0.515625 -0.640625 C -0.703125 -0.828125 -0.8125 -1 -0.84375 -1.15625 C -0.882812 -1.320312 -0.84375 -1.46875 -0.71875 -1.59375 C -0.59375 -1.71875 -0.445312 -1.757812 -0.28125 -1.71875 C -0.125 -1.6875 0.046875 -1.578125 0.234375 -1.390625 Z M 0.078125 -1.234375 C -0.0976562 -1.410156 -0.242188 -1.519531 -0.359375 -1.5625 C -0.484375 -1.613281 -0.582031 -1.601562 -0.65625 -1.53125 C -0.726562 -1.457031 -0.742188 -1.363281 -0.703125 -1.25 C -0.660156 -1.132812 -0.546875 -0.984375 -0.359375 -0.796875 C -0.160156 -0.597656 -0.0078125 -0.476562 0.09375 -0.4375 C 0.207031 -0.40625 0.300781 -0.425781 0.375 -0.5 C 0.445312 -0.570312 0.460938 -0.664062 0.421875 -0.78125 C 0.378906 -0.894531 0.265625 -1.046875 0.078125 -1.234375 Z M 0.078125 -1.234375 "/></g></g></g></g></g><g clip-path="url(#c5c3c8a266)"><g clip-path="url(#f947227473)"><g clip-path="url(#af2f9eff14)"><path fill="#800080" d="M 61.085938 32.425781 C 61.074219 32.527344 61.0625 32.675781 61.039062 32.867188 C 61.03125 32.964844 61.019531 33.070312 61.003906 33.1875 C 60.996094 33.246094 60.988281 33.308594 60.980469 33.371094 C 60.96875 33.4375 60.960938 33.503906 60.949219 33.570312 C 60.9375 33.640625 60.925781 33.710938 60.917969 33.785156 C 60.90625 33.859375 60.894531 33.933594 60.878906 34.011719 C 60.851562 34.167969 60.824219 34.335938 60.789062 34.507812 C 60.648438 35.207031 60.4375 36.035156 60.113281 36.945312 C 59.945312 37.398438 59.75 37.875 59.519531 38.359375 C 59.285156 38.84375 59.015625 39.335938 58.710938 39.832031 C 58.097656 40.828125 57.324219 41.832031 56.402344 42.804688 C 55.484375 43.777344 54.417969 44.71875 53.25 45.625 C 52.085938 46.53125 50.808594 47.402344 49.484375 48.253906 C 48.269531 49.035156 47.003906 49.792969 45.726562 50.554688 L 44.597656 49.425781 C 46.097656 47.324219 45.898438 44.367188 44 42.46875 C 41.886719 40.355469 38.464844 40.34375 36.371094 42.441406 C 35.367188 43.445312 34.808594 44.78125 34.804688 46.207031 C 34.796875 47.628906 35.339844 48.976562 36.332031 50.003906 C 36.671875 50.355469 37.230469 50.367188 37.578125 50.027344 C 37.925781 49.695312 37.933594 49.132812 37.59375 48.785156 C 36.222656 47.363281 36.230469 45.078125 37.621094 43.691406 C 39.03125 42.277344 41.335938 42.289062 42.757812 43.710938 C 44.179688 45.132812 44.1875 47.4375 42.773438 48.851562 C 42.433594 49.191406 42.433594 49.75 42.78125 50.09375 C 42.792969 50.105469 42.804688 50.117188 42.820312 50.128906 C 42.824219 50.132812 42.828125 50.140625 42.832031 50.144531 L 44.167969 51.480469 C 43.164062 52.078125 42.160156 52.679688 41.167969 53.300781 C 39.785156 54.167969 38.4375 55.0625 37.175781 56.039062 C 35.917969 57.011719 34.765625 58.050781 33.769531 59.136719 C 32.773438 60.226562 31.945312 61.367188 31.308594 62.492188 C 31.269531 62.5625 31.230469 62.632812 31.191406 62.703125 C 31.152344 62.773438 31.113281 62.84375 31.078125 62.914062 C 31.007812 63.054688 30.9375 63.195312 30.867188 63.335938 C 30.738281 63.617188 30.605469 63.886719 30.5 64.164062 C 30.472656 64.230469 30.445312 64.300781 30.417969 64.367188 C 30.390625 64.433594 30.367188 64.503906 30.34375 64.570312 C 30.292969 64.703125 30.246094 64.835938 30.199219 64.96875 C 30.117188 65.234375 30.03125 65.492188 29.972656 65.746094 C 29.832031 66.25 29.75 66.734375 29.679688 67.175781 C 29.667969 67.289062 29.65625 67.398438 29.640625 67.503906 C 29.636719 67.558594 29.628906 67.609375 29.625 67.660156 C 29.621094 67.6875 29.617188 67.714844 29.617188 67.738281 C 29.613281 67.765625 29.613281 67.792969 29.609375 67.816406 C 29.601562 67.917969 29.597656 68.019531 29.589844 68.117188 C 29.585938 68.164062 29.585938 68.214844 29.582031 68.261719 C 29.582031 68.285156 29.578125 68.308594 29.578125 68.332031 C 29.578125 68.355469 29.578125 68.378906 29.578125 68.402344 C 29.574219 68.585938 29.570312 68.761719 29.570312 68.925781 C 29.574219 69.089844 29.582031 69.242188 29.585938 69.382812 C 29.589844 69.421875 29.589844 69.453125 29.589844 69.488281 C 29.59375 69.523438 29.597656 69.558594 29.597656 69.589844 C 29.605469 69.65625 29.609375 69.71875 29.617188 69.78125 C 29.628906 69.898438 29.636719 70.007812 29.648438 70.105469 C 29.703125 70.492188 29.734375 70.695312 29.734375 70.695312 C 29.734375 70.695312 29.761719 70.492188 29.808594 70.105469 C 29.824219 70.011719 29.84375 69.90625 29.863281 69.789062 C 29.871094 69.730469 29.882812 69.667969 29.890625 69.605469 C 29.898438 69.574219 29.902344 69.542969 29.90625 69.511719 C 29.914062 69.476562 29.921875 69.445312 29.929688 69.410156 C 29.957031 69.273438 29.984375 69.128906 30.019531 68.972656 C 30.054688 68.820312 30.09375 68.65625 30.136719 68.484375 C 30.140625 68.464844 30.148438 68.441406 30.152344 68.421875 C 30.160156 68.398438 30.164062 68.378906 30.171875 68.355469 C 30.183594 68.3125 30.195312 68.269531 30.210938 68.222656 C 30.234375 68.132812 30.261719 68.042969 30.289062 67.949219 C 30.292969 67.925781 30.300781 67.902344 30.308594 67.878906 C 30.316406 67.855469 30.324219 67.832031 30.332031 67.808594 C 30.347656 67.761719 30.363281 67.714844 30.378906 67.667969 C 30.410156 67.570312 30.445312 67.472656 30.476562 67.371094 C 30.515625 67.273438 30.550781 67.175781 30.589844 67.070312 C 30.628906 66.96875 30.664062 66.863281 30.710938 66.761719 C 30.757812 66.65625 30.800781 66.550781 30.847656 66.445312 C 30.867188 66.390625 30.894531 66.335938 30.917969 66.285156 C 30.945312 66.230469 30.96875 66.175781 30.996094 66.121094 C 31.09375 65.902344 31.214844 65.683594 31.328125 65.457031 C 31.390625 65.347656 31.453125 65.234375 31.519531 65.121094 C 31.550781 65.066406 31.582031 65.007812 31.617188 64.949219 C 31.648438 64.894531 31.683594 64.835938 31.71875 64.78125 C 31.855469 64.550781 32.011719 64.324219 32.167969 64.089844 C 32.25 63.976562 32.332031 63.859375 32.414062 63.742188 C 32.453125 63.683594 32.5 63.628906 32.542969 63.570312 C 32.585938 63.511719 32.628906 63.453125 32.675781 63.398438 C 33.390625 62.472656 34.261719 61.542969 35.269531 60.652344 C 36.277344 59.761719 37.417969 58.898438 38.652344 58.074219 C 38.804688 57.96875 38.960938 57.867188 39.117188 57.765625 C 39.273438 57.660156 39.433594 57.5625 39.59375 57.460938 C 39.757812 57.359375 39.917969 57.253906 40.082031 57.152344 C 40.246094 57.054688 40.40625 56.953125 40.570312 56.855469 C 40.734375 56.753906 40.902344 56.652344 41.070312 56.550781 C 41.238281 56.453125 41.40625 56.351562 41.574219 56.253906 C 41.914062 56.050781 42.253906 55.851562 42.601562 55.652344 C 43.980469 54.847656 45.40625 54.042969 46.824219 53.199219 C 48.242188 52.359375 49.65625 51.484375 51.015625 50.546875 C 52.375 49.613281 53.679688 48.621094 54.871094 47.558594 C 56.058594 46.496094 57.136719 45.363281 58.035156 44.1875 C 58.484375 43.597656 58.890625 43 59.246094 42.394531 C 59.601562 41.796875 59.910156 41.191406 60.167969 40.597656 C 60.425781 40 60.632812 39.417969 60.800781 38.851562 C 60.839844 38.710938 60.878906 38.570312 60.914062 38.433594 C 60.933594 38.363281 60.949219 38.292969 60.96875 38.226562 C 60.984375 38.15625 61 38.089844 61.015625 38.019531 C 61.03125 37.953125 61.046875 37.886719 61.058594 37.820312 C 61.074219 37.753906 61.085938 37.6875 61.097656 37.621094 C 61.113281 37.554688 61.125 37.488281 61.136719 37.421875 C 61.148438 37.355469 61.164062 37.292969 61.171875 37.230469 C 61.339844 36.199219 61.378906 35.296875 61.355469 34.558594 C 61.347656 34.375 61.339844 34.203125 61.332031 34.039062 C 61.328125 33.957031 61.320312 33.878906 61.3125 33.800781 C 61.304688 33.726562 61.300781 33.652344 61.292969 33.582031 C 61.269531 33.296875 61.234375 33.058594 61.207031 32.867188 C 61.175781 32.671875 61.148438 32.523438 61.128906 32.425781 C 61.109375 32.328125 61.097656 32.277344 61.097656 32.277344 C 61.097656 32.277344 61.09375 32.328125 61.085938 32.425781 " fill-opacity="1" fill-rule="nonzero"/></g></g></g><g fill="#000000" fill-opacity="1"><g transform="translate(117.680622, 80.380298)"><g><path d="M 10.457031 -6.910156 L 9.703125 -3.570312 L 9.023438 -6.910156 L 6.414062 -16.730469 L 1.527344 -16.730469 L 1.527344 0 L 4.746094 0 L 4.746094 -6.273438 L 4.347656 -14.472656 L 5.5 -9.5625 L 7.988281 0 L 11.539062 0 L 13.980469 -9.398438 L 15.132812 -14.449219 L 14.734375 -6.273438 L 14.734375 0 L 17.976562 0 L 17.976562 -16.730469 L 13.019531 -16.730469 Z M 10.457031 -6.910156 "/></g></g></g><g fill="#000000" fill-opacity="1"><g transform="translate(137.182429, 80.380298)"><g><path d="M 7.378906 -6.132812 C 7.167969 -5.429688 6.910156 -4.582031 6.671875 -3.6875 C 6.414062 -4.582031 6.179688 -5.453125 5.945312 -6.15625 L 3.996094 -12.125 L 0.351562 -12.125 L 5.074219 0.609375 L 4.957031 0.941406 C 4.699219 1.667969 4.230469 1.972656 3.242188 1.972656 L 1.644531 1.972656 L 1.644531 4.792969 L 4.417969 4.792969 C 6.132812 4.792969 7.167969 4.277344 7.871094 2.160156 L 12.710938 -12.125 L 9.1875 -12.125 Z M 7.378906 -6.132812 "/></g></g></g><g fill="#000000" fill-opacity="1"><g transform="translate(150.246294, 80.380298)"><g><path d="M 13.347656 -16.730469 L 1.527344 -16.730469 L 1.527344 0 L 5.003906 0 L 5.003906 -6.933594 L 12.289062 -6.933594 L 12.289062 -10.035156 L 5.003906 -10.035156 L 5.003906 -13.628906 L 13.347656 -13.628906 Z M 13.347656 -16.730469 "/></g></g></g><g fill="#000000" fill-opacity="1"><g transform="translate(163.709592, 80.380298)"><g><path d="M 12.148438 0 C 11.796875 -0.609375 11.679688 -1.410156 11.679688 -2.539062 L 11.679688 -7.894531 C 11.679688 -10.878906 9.914062 -12.40625 6.4375 -12.40625 C 3.171875 -12.40625 1.503906 -11.160156 1.269531 -8.507812 L 4.300781 -8.460938 C 4.464844 -9.585938 5.097656 -10.058594 6.460938 -10.058594 C 7.777344 -10.058594 8.507812 -9.632812 8.507812 -8.742188 L 8.507812 -7.847656 L 4.277344 -7.003906 C 1.832031 -6.507812 0.585938 -5.261719 0.585938 -3.335938 C 0.585938 -1.128906 2.230469 0.351562 4.792969 0.351562 C 6.390625 0.351562 7.707031 -0.234375 8.53125 -1.222656 C 8.601562 -0.800781 8.695312 -0.421875 8.789062 0 Z M 5.734375 -2.089844 C 4.511719 -2.089844 3.832031 -2.679688 3.832031 -3.546875 C 3.832031 -4.347656 4.394531 -4.863281 5.40625 -5.074219 L 8.507812 -5.734375 L 8.507812 -4.839844 C 8.507812 -3.054688 7.308594 -2.089844 5.734375 -2.089844 Z M 5.734375 -2.089844 "/></g></g></g><g fill="#000000" fill-opacity="1"><g transform="translate(176.796952, 80.380298)"><g><path d="M 6.484375 0.445312 C 9.75 0.445312 11.867188 -1.035156 11.867188 -3.59375 C 11.867188 -5.476562 10.738281 -6.578125 8.316406 -7.074219 L 5.710938 -7.613281 C 4.839844 -7.800781 4.347656 -8.199219 4.347656 -8.835938 C 4.347656 -9.609375 5.050781 -10.128906 6.15625 -10.128906 C 7.402344 -10.128906 8.292969 -9.492188 8.460938 -8.4375 L 11.441406 -8.554688 C 11.136719 -10.925781 9.140625 -12.429688 6.203125 -12.429688 C 3.21875 -12.429688 1.269531 -10.878906 1.269531 -8.4375 C 1.269531 -6.578125 2.421875 -5.359375 4.792969 -4.886719 L 7.191406 -4.417969 C 8.292969 -4.207031 8.789062 -3.855469 8.789062 -3.195312 C 8.789062 -2.277344 7.847656 -1.855469 6.601562 -1.855469 C 5.027344 -1.855469 4.207031 -2.539062 4.019531 -3.734375 L 0.988281 -3.617188 C 1.292969 -1.035156 3.171875 0.445312 6.484375 0.445312 Z M 6.484375 0.445312 "/></g></g></g><g fill="#000000" fill-opacity="1"><g transform="translate(189.484878, 80.380298)"><g><path d="M 8.199219 -12.429688 C 6.648438 -12.429688 5.523438 -11.796875 4.722656 -10.503906 L 4.722656 -16.730469 L 1.410156 -16.730469 L 1.410156 0 L 4.722656 0 L 4.722656 -6.484375 C 4.722656 -8.292969 5.6875 -9.445312 7.097656 -9.445312 C 8.269531 -9.445312 8.859375 -8.648438 8.859375 -7.378906 L 8.859375 0 L 12.171875 0 L 12.171875 -8.128906 C 12.171875 -10.761719 10.714844 -12.429688 8.199219 -12.429688 Z M 8.199219 -12.429688 "/></g></g></g><g fill="#000000" fill-opacity="1"><g transform="translate(203.06565, 80.380298)"><g><path d="M 4.746094 -13.722656 L 4.746094 -16.730469 L 1.433594 -16.730469 L 1.433594 -13.722656 Z M 4.722656 0 L 4.722656 -12.125 L 1.410156 -12.125 L 1.410156 0 Z M 4.722656 0 "/></g></g></g><g fill="#000000" fill-opacity="1"><g transform="translate(209.198149, 80.380298)"><g><path d="M 6.957031 0.398438 C 10.597656 0.398438 13.160156 -2.351562 13.160156 -6.015625 C 13.160156 -9.679688 10.597656 -12.429688 6.957031 -12.429688 C 3.3125 -12.429688 0.75 -9.679688 0.75 -6.015625 C 0.75 -2.351562 3.3125 0.398438 6.957031 0.398438 Z M 6.957031 -2.183594 C 5.097656 -2.183594 3.949219 -3.6875 3.949219 -6.015625 C 3.949219 -8.339844 5.097656 -9.84375 6.957031 -9.84375 C 8.8125 -9.84375 9.964844 -8.339844 9.964844 -6.015625 C 9.964844 -3.6875 8.8125 -2.183594 6.957031 -2.183594 Z M 6.957031 -2.183594 "/></g></g></g><g fill="#000000" fill-opacity="1"><g transform="translate(223.10787, 80.380298)"><g><path d="M 8.199219 -12.429688 C 6.648438 -12.429688 5.5 -11.796875 4.699219 -10.480469 L 4.652344 -12.125 L 1.410156 -12.125 L 1.410156 0 L 4.722656 0 L 4.722656 -6.484375 C 4.722656 -8.292969 5.6875 -9.445312 7.097656 -9.445312 C 8.269531 -9.445312 8.859375 -8.648438 8.859375 -7.378906 L 8.859375 0 L 12.171875 0 L 12.171875 -8.128906 C 12.171875 -10.761719 10.714844 -12.429688 8.199219 -12.429688 Z M 8.199219 -12.429688 "/></g></g></g><g fill="#000000" fill-opacity="1"><g transform="translate(236.688642, 80.380298)"><g><path d="M 6.578125 0.375 C 9.988281 0.375 11.984375 -1.550781 11.984375 -4.792969 L 11.984375 -16.730469 L 8.507812 -16.730469 L 8.507812 -4.746094 C 8.507812 -3.289062 7.871094 -2.632812 6.507812 -2.632812 C 5.144531 -2.632812 4.464844 -3.289062 4.464844 -4.746094 L 4.464844 -6.273438 L 1.175781 -6.273438 L 1.175781 -4.792969 C 1.175781 -1.550781 3.171875 0.375 6.578125 0.375 Z M 6.578125 0.375 "/></g></g></g><g fill="#000000" fill-opacity="1"><g transform="translate(250.19893, 80.380298)"><g><path d="M 8.859375 -5.640625 C 8.859375 -3.832031 7.894531 -2.679688 6.484375 -2.679688 C 5.308594 -2.679688 4.722656 -3.476562 4.722656 -4.746094 L 4.722656 -12.125 L 1.410156 -12.125 L 1.410156 -3.996094 C 1.410156 -1.363281 2.867188 0.304688 5.382812 0.304688 C 6.933594 0.304688 8.082031 -0.328125 8.882812 -1.644531 L 8.929688 0 L 12.171875 0 L 12.171875 -12.125 L 8.859375 -12.125 Z M 8.859375 -5.640625 "/></g></g></g><g fill="#000000" fill-opacity="1"><g transform="translate(263.779702, 80.380298)"><g><path d="M 9.234375 -10.902344 C 8.410156 -11.914062 7.261719 -12.429688 5.710938 -12.429688 C 2.960938 -12.429688 0.75 -10.082031 0.75 -6.109375 C 0.75 -2.207031 2.914062 0.398438 5.96875 0.398438 C 7.472656 0.398438 8.671875 -0.234375 9.492188 -1.503906 L 9.609375 0 L 12.546875 0 L 12.546875 -16.730469 L 9.234375 -16.730469 Z M 6.671875 -2.515625 C 5.074219 -2.515625 3.949219 -3.878906 3.949219 -6.109375 C 3.949219 -8.316406 5.074219 -9.679688 6.671875 -9.679688 C 8.269531 -9.679688 9.398438 -8.292969 9.398438 -6.109375 C 9.398438 -3.925781 8.269531 -2.515625 6.671875 -2.515625 Z M 6.671875 -2.515625 "/></g></g></g><g fill="#000000" fill-opacity="1"><g transform="translate(277.736412, 80.380298)"><g><path d="M 9.492188 -10.621094 C 8.695312 -11.820312 7.496094 -12.429688 5.945312 -12.429688 C 2.960938 -12.429688 0.75 -10.152344 0.75 -6.296875 C 0.75 -2.539062 2.914062 0 5.945312 0 C 7.308594 0 8.410156 -0.492188 9.234375 -1.480469 L 9.234375 0.1875 C 9.234375 1.714844 8.625 2.609375 6.695312 2.609375 C 5.261719 2.609375 4.441406 2.113281 4.253906 0.988281 L 1.199219 0.988281 C 1.433594 3.523438 3.289062 5.074219 6.765625 5.074219 C 10.410156 5.074219 12.546875 3.335938 12.546875 0.140625 L 12.546875 -12.125 L 9.609375 -12.125 Z M 6.671875 -2.820312 C 5.074219 -2.820312 3.949219 -4.136719 3.949219 -6.296875 C 3.949219 -8.4375 5.074219 -9.773438 6.671875 -9.773438 C 8.269531 -9.773438 9.398438 -8.410156 9.398438 -6.296875 C 9.398438 -4.183594 8.269531 -2.820312 6.671875 -2.820312 Z M 6.671875 -2.820312 "/></g></g></g><g fill="#000000" fill-opacity="1"><g transform="translate(291.693122, 80.380298)"><g><path d="M 12.945312 -5.640625 C 12.945312 -9.890625 10.316406 -12.429688 6.71875 -12.429688 C 3.007812 -12.429688 0.75 -9.65625 0.75 -6.109375 C 0.75 -2.398438 3.054688 0.398438 7.074219 0.398438 C 9.796875 0.398438 11.820312 -0.871094 12.640625 -3.5 L 9.351562 -3.734375 C 8.953125 -2.679688 8.152344 -2.160156 7.003906 -2.160156 C 5.359375 -2.160156 4.300781 -3.242188 4.160156 -5.074219 L 12.945312 -5.074219 Z M 6.835938 -10.011719 C 8.339844 -10.011719 9.328125 -9.023438 9.515625 -7.332031 L 4.136719 -7.332031 C 4.300781 -9 5.332031 -10.011719 6.835938 -10.011719 Z M 6.835938 -10.011719 "/></g></g></g></svg>